<mxfile host="app.diagrams.net" modified="2023-06-05T06:29:25.018Z" agent="Mozilla/5.0 (Macintosh; Intel Mac OS X 10_15_7) AppleWebKit/537.36 (KHTML, like Gecko) Chrome/113.0.0.0 Safari/537.36" etag="dZslqjq6rzQ4lOcNfxOK" version="21.3.6" type="github">
  <diagram name="Page-1" id="PX-jbgWyiAjeluYSFFQC">
    <mxGraphModel dx="2963" dy="1651" grid="1" gridSize="10" guides="1" tooltips="1" connect="1" arrows="1" fold="1" page="1" pageScale="1" pageWidth="850" pageHeight="1100" math="0" shadow="0">
      <root>
        <mxCell id="0" />
        <mxCell id="1" parent="0" />
        <mxCell id="aqqptmSZhaTzbbPc9Eve-1" value="CPU 1" style="rounded=0;whiteSpace=wrap;html=1;" vertex="1" parent="1">
          <mxGeometry x="200" y="120" width="120" height="40" as="geometry" />
        </mxCell>
        <mxCell id="aqqptmSZhaTzbbPc9Eve-2" value="SWITCH" style="rounded=0;whiteSpace=wrap;html=1;" vertex="1" parent="1">
          <mxGeometry x="120" y="240" width="280" height="40" as="geometry" />
        </mxCell>
        <mxCell id="aqqptmSZhaTzbbPc9Eve-3" value="Card 0" style="rounded=0;whiteSpace=wrap;html=1;" vertex="1" parent="1">
          <mxGeometry x="120" y="360" width="40" height="120" as="geometry" />
        </mxCell>
        <mxCell id="aqqptmSZhaTzbbPc9Eve-4" value="Card 1" style="rounded=0;whiteSpace=wrap;html=1;" vertex="1" parent="1">
          <mxGeometry x="200" y="360" width="40" height="120" as="geometry" />
        </mxCell>
        <mxCell id="aqqptmSZhaTzbbPc9Eve-5" value="Card 2" style="rounded=0;whiteSpace=wrap;html=1;" vertex="1" parent="1">
          <mxGeometry x="280" y="360" width="40" height="120" as="geometry" />
        </mxCell>
        <mxCell id="aqqptmSZhaTzbbPc9Eve-6" value="Card 3" style="rounded=0;whiteSpace=wrap;html=1;" vertex="1" parent="1">
          <mxGeometry x="360" y="360" width="40" height="120" as="geometry" />
        </mxCell>
        <mxCell id="aqqptmSZhaTzbbPc9Eve-7" value="3X/4" style="shape=flexArrow;endArrow=classic;startArrow=classic;html=1;rounded=0;entryX=0.358;entryY=1.031;entryDx=0;entryDy=0;entryPerimeter=0;exitX=0.5;exitY=0;exitDx=0;exitDy=0;" edge="1" parent="1" source="aqqptmSZhaTzbbPc9Eve-4" target="aqqptmSZhaTzbbPc9Eve-2">
          <mxGeometry width="100" height="100" relative="1" as="geometry">
            <mxPoint x="450" y="630" as="sourcePoint" />
            <mxPoint x="550" y="530" as="targetPoint" />
          </mxGeometry>
        </mxCell>
        <mxCell id="aqqptmSZhaTzbbPc9Eve-8" value="" style="shape=flexArrow;endArrow=classic;startArrow=classic;html=1;rounded=0;entryX=0.358;entryY=1.031;entryDx=0;entryDy=0;entryPerimeter=0;exitX=0.5;exitY=0;exitDx=0;exitDy=0;" edge="1" parent="1">
          <mxGeometry width="100" height="100" relative="1" as="geometry">
            <mxPoint x="379.85" y="359" as="sourcePoint" />
            <mxPoint x="379.85" y="280" as="targetPoint" />
          </mxGeometry>
        </mxCell>
        <mxCell id="aqqptmSZhaTzbbPc9Eve-36" value="3X/4" style="edgeLabel;html=1;align=center;verticalAlign=middle;resizable=0;points=[];" vertex="1" connectable="0" parent="aqqptmSZhaTzbbPc9Eve-8">
          <mxGeometry x="-0.0079" y="-1" relative="1" as="geometry">
            <mxPoint as="offset" />
          </mxGeometry>
        </mxCell>
        <mxCell id="aqqptmSZhaTzbbPc9Eve-9" value="3X/4" style="shape=flexArrow;endArrow=classic;startArrow=classic;html=1;rounded=0;entryX=0.358;entryY=1.031;entryDx=0;entryDy=0;entryPerimeter=0;exitX=0.5;exitY=0;exitDx=0;exitDy=0;" edge="1" parent="1">
          <mxGeometry width="100" height="100" relative="1" as="geometry">
            <mxPoint x="299.85" y="359" as="sourcePoint" />
            <mxPoint x="299.85" y="280" as="targetPoint" />
          </mxGeometry>
        </mxCell>
        <mxCell id="aqqptmSZhaTzbbPc9Eve-10" value="" style="shape=flexArrow;endArrow=classic;startArrow=classic;html=1;rounded=0;entryX=0.358;entryY=1.031;entryDx=0;entryDy=0;entryPerimeter=0;exitX=0.5;exitY=0;exitDx=0;exitDy=0;" edge="1" parent="1">
          <mxGeometry width="100" height="100" relative="1" as="geometry">
            <mxPoint x="139.85000000000002" y="360" as="sourcePoint" />
            <mxPoint x="139.85000000000002" y="281" as="targetPoint" />
          </mxGeometry>
        </mxCell>
        <mxCell id="aqqptmSZhaTzbbPc9Eve-35" value="3X/4" style="edgeLabel;html=1;align=center;verticalAlign=middle;resizable=0;points=[];" vertex="1" connectable="0" parent="aqqptmSZhaTzbbPc9Eve-10">
          <mxGeometry x="-0.0142" relative="1" as="geometry">
            <mxPoint as="offset" />
          </mxGeometry>
        </mxCell>
        <mxCell id="aqqptmSZhaTzbbPc9Eve-11" value="" style="shape=flexArrow;endArrow=classic;startArrow=classic;html=1;rounded=0;entryX=0.358;entryY=1.031;entryDx=0;entryDy=0;entryPerimeter=0;exitX=0.5;exitY=0;exitDx=0;exitDy=0;" edge="1" parent="1">
          <mxGeometry width="100" height="100" relative="1" as="geometry">
            <mxPoint x="259.85" y="240" as="sourcePoint" />
            <mxPoint x="259.85" y="161" as="targetPoint" />
          </mxGeometry>
        </mxCell>
        <mxCell id="aqqptmSZhaTzbbPc9Eve-12" value="IB 0" style="rounded=0;whiteSpace=wrap;html=1;" vertex="1" parent="1">
          <mxGeometry x="440" y="360" width="40" height="120" as="geometry" />
        </mxCell>
        <mxCell id="aqqptmSZhaTzbbPc9Eve-13" value="0 G/s" style="endArrow=classic;startArrow=classic;html=1;rounded=0;entryX=0.5;entryY=0;entryDx=0;entryDy=0;exitX=1;exitY=0.5;exitDx=0;exitDy=0;" edge="1" parent="1" source="aqqptmSZhaTzbbPc9Eve-2" target="aqqptmSZhaTzbbPc9Eve-12">
          <mxGeometry width="50" height="50" relative="1" as="geometry">
            <mxPoint x="280" y="350" as="sourcePoint" />
            <mxPoint x="330" y="300" as="targetPoint" />
            <Array as="points">
              <mxPoint x="460" y="260" />
            </Array>
          </mxGeometry>
        </mxCell>
        <mxCell id="aqqptmSZhaTzbbPc9Eve-14" value="CPU 1" style="rounded=0;whiteSpace=wrap;html=1;" vertex="1" parent="1">
          <mxGeometry x="600" y="120" width="120" height="40" as="geometry" />
        </mxCell>
        <mxCell id="aqqptmSZhaTzbbPc9Eve-15" value="SWITCH" style="rounded=0;whiteSpace=wrap;html=1;" vertex="1" parent="1">
          <mxGeometry x="520" y="240" width="280" height="40" as="geometry" />
        </mxCell>
        <mxCell id="aqqptmSZhaTzbbPc9Eve-16" value="Card 4" style="rounded=0;whiteSpace=wrap;html=1;" vertex="1" parent="1">
          <mxGeometry x="520" y="360" width="40" height="120" as="geometry" />
        </mxCell>
        <mxCell id="aqqptmSZhaTzbbPc9Eve-17" value="Card 5" style="rounded=0;whiteSpace=wrap;html=1;" vertex="1" parent="1">
          <mxGeometry x="600" y="360" width="40" height="120" as="geometry" />
        </mxCell>
        <mxCell id="aqqptmSZhaTzbbPc9Eve-18" value="Card 6" style="rounded=0;whiteSpace=wrap;html=1;" vertex="1" parent="1">
          <mxGeometry x="680" y="360" width="40" height="120" as="geometry" />
        </mxCell>
        <mxCell id="aqqptmSZhaTzbbPc9Eve-19" value="Card 7" style="rounded=0;whiteSpace=wrap;html=1;" vertex="1" parent="1">
          <mxGeometry x="760" y="360" width="40" height="120" as="geometry" />
        </mxCell>
        <mxCell id="aqqptmSZhaTzbbPc9Eve-20" value="3X/4" style="shape=flexArrow;endArrow=classic;startArrow=classic;html=1;rounded=0;entryX=0.358;entryY=1.031;entryDx=0;entryDy=0;entryPerimeter=0;exitX=0.5;exitY=0;exitDx=0;exitDy=0;" edge="1" parent="1" source="aqqptmSZhaTzbbPc9Eve-17" target="aqqptmSZhaTzbbPc9Eve-15">
          <mxGeometry width="100" height="100" relative="1" as="geometry">
            <mxPoint x="850" y="630" as="sourcePoint" />
            <mxPoint x="950" y="530" as="targetPoint" />
          </mxGeometry>
        </mxCell>
        <mxCell id="aqqptmSZhaTzbbPc9Eve-21" value="3X/4" style="shape=flexArrow;endArrow=classic;startArrow=classic;html=1;rounded=0;entryX=0.358;entryY=1.031;entryDx=0;entryDy=0;entryPerimeter=0;exitX=0.5;exitY=0;exitDx=0;exitDy=0;" edge="1" parent="1">
          <mxGeometry width="100" height="100" relative="1" as="geometry">
            <mxPoint x="779.85" y="359" as="sourcePoint" />
            <mxPoint x="779.85" y="280" as="targetPoint" />
          </mxGeometry>
        </mxCell>
        <mxCell id="aqqptmSZhaTzbbPc9Eve-22" value="3X/4" style="shape=flexArrow;endArrow=classic;startArrow=classic;html=1;rounded=0;entryX=0.358;entryY=1.031;entryDx=0;entryDy=0;entryPerimeter=0;exitX=0.5;exitY=0;exitDx=0;exitDy=0;" edge="1" parent="1">
          <mxGeometry width="100" height="100" relative="1" as="geometry">
            <mxPoint x="699.85" y="359" as="sourcePoint" />
            <mxPoint x="699.85" y="280" as="targetPoint" />
          </mxGeometry>
        </mxCell>
        <mxCell id="aqqptmSZhaTzbbPc9Eve-23" value="3X/4" style="shape=flexArrow;endArrow=classic;startArrow=classic;html=1;rounded=0;entryX=0.358;entryY=1.031;entryDx=0;entryDy=0;entryPerimeter=0;exitX=0.5;exitY=0;exitDx=0;exitDy=0;" edge="1" parent="1">
          <mxGeometry width="100" height="100" relative="1" as="geometry">
            <mxPoint x="539.85" y="360" as="sourcePoint" />
            <mxPoint x="539.85" y="281" as="targetPoint" />
          </mxGeometry>
        </mxCell>
        <mxCell id="aqqptmSZhaTzbbPc9Eve-24" value="" style="shape=flexArrow;endArrow=classic;startArrow=classic;html=1;rounded=0;entryX=0.358;entryY=1.031;entryDx=0;entryDy=0;entryPerimeter=0;exitX=0.5;exitY=0;exitDx=0;exitDy=0;" edge="1" parent="1">
          <mxGeometry width="100" height="100" relative="1" as="geometry">
            <mxPoint x="659.85" y="240" as="sourcePoint" />
            <mxPoint x="659.85" y="161" as="targetPoint" />
          </mxGeometry>
        </mxCell>
        <mxCell id="aqqptmSZhaTzbbPc9Eve-25" value="IB 2" style="rounded=0;whiteSpace=wrap;html=1;" vertex="1" parent="1">
          <mxGeometry x="840" y="360" width="40" height="120" as="geometry" />
        </mxCell>
        <mxCell id="aqqptmSZhaTzbbPc9Eve-26" value="0G/s" style="endArrow=classic;startArrow=classic;html=1;rounded=0;entryX=0.5;entryY=0;entryDx=0;entryDy=0;exitX=1;exitY=0.5;exitDx=0;exitDy=0;" edge="1" parent="1" source="aqqptmSZhaTzbbPc9Eve-15" target="aqqptmSZhaTzbbPc9Eve-25">
          <mxGeometry width="50" height="50" relative="1" as="geometry">
            <mxPoint x="680" y="350" as="sourcePoint" />
            <mxPoint x="730" y="300" as="targetPoint" />
            <Array as="points">
              <mxPoint x="860" y="260" />
            </Array>
          </mxGeometry>
        </mxCell>
        <mxCell id="aqqptmSZhaTzbbPc9Eve-27" value="IB 1" style="rounded=0;whiteSpace=wrap;html=1;" vertex="1" parent="1">
          <mxGeometry x="40" y="360" width="40" height="120" as="geometry" />
        </mxCell>
        <mxCell id="aqqptmSZhaTzbbPc9Eve-28" value="" style="endArrow=classic;startArrow=classic;html=1;rounded=0;entryX=0.5;entryY=0;entryDx=0;entryDy=0;exitX=0;exitY=0.5;exitDx=0;exitDy=0;" edge="1" parent="1" source="aqqptmSZhaTzbbPc9Eve-1" target="aqqptmSZhaTzbbPc9Eve-27">
          <mxGeometry width="50" height="50" relative="1" as="geometry">
            <mxPoint x="410" y="270" as="sourcePoint" />
            <mxPoint x="470" y="370" as="targetPoint" />
            <Array as="points">
              <mxPoint x="60" y="140" />
            </Array>
          </mxGeometry>
        </mxCell>
        <mxCell id="aqqptmSZhaTzbbPc9Eve-29" value="" style="endArrow=classic;startArrow=classic;html=1;rounded=0;entryX=0;entryY=0.5;entryDx=0;entryDy=0;exitX=1;exitY=0.5;exitDx=0;exitDy=0;" edge="1" parent="1" source="aqqptmSZhaTzbbPc9Eve-1" target="aqqptmSZhaTzbbPc9Eve-14">
          <mxGeometry width="50" height="50" relative="1" as="geometry">
            <mxPoint x="480" y="280" as="sourcePoint" />
            <mxPoint x="530" y="230" as="targetPoint" />
          </mxGeometry>
        </mxCell>
        <mxCell id="aqqptmSZhaTzbbPc9Eve-30" value="UPI" style="edgeLabel;html=1;align=center;verticalAlign=middle;resizable=0;points=[];" vertex="1" connectable="0" parent="aqqptmSZhaTzbbPc9Eve-29">
          <mxGeometry x="0.071" relative="1" as="geometry">
            <mxPoint as="offset" />
          </mxGeometry>
        </mxCell>
        <mxCell id="aqqptmSZhaTzbbPc9Eve-31" value="" style="endArrow=classic;startArrow=classic;html=1;rounded=0;entryX=1;entryY=0.5;entryDx=0;entryDy=0;exitX=0.5;exitY=0;exitDx=0;exitDy=0;" edge="1" parent="1" source="aqqptmSZhaTzbbPc9Eve-32" target="aqqptmSZhaTzbbPc9Eve-14">
          <mxGeometry width="50" height="50" relative="1" as="geometry">
            <mxPoint x="480" y="280" as="sourcePoint" />
            <mxPoint x="530" y="230" as="targetPoint" />
            <Array as="points">
              <mxPoint x="940" y="140" />
            </Array>
          </mxGeometry>
        </mxCell>
        <mxCell id="aqqptmSZhaTzbbPc9Eve-32" value="IB 3" style="rounded=0;whiteSpace=wrap;html=1;" vertex="1" parent="1">
          <mxGeometry x="920" y="360" width="40" height="120" as="geometry" />
        </mxCell>
        <mxCell id="aqqptmSZhaTzbbPc9Eve-33" value="XG/s 为Allreduce的带宽" style="text;html=1;strokeColor=none;fillColor=none;align=center;verticalAlign=middle;whiteSpace=wrap;rounded=0;" vertex="1" parent="1">
          <mxGeometry x="40" width="160" height="30" as="geometry" />
        </mxCell>
        <mxCell id="aqqptmSZhaTzbbPc9Eve-34" value="第一步：Scatter Reduce" style="text;html=1;strokeColor=none;fillColor=none;align=center;verticalAlign=middle;whiteSpace=wrap;rounded=0;" vertex="1" parent="1">
          <mxGeometry x="390" y="50" width="160" height="30" as="geometry" />
        </mxCell>
        <mxCell id="aqqptmSZhaTzbbPc9Eve-37" value="CPU 1" style="rounded=0;whiteSpace=wrap;html=1;" vertex="1" parent="1">
          <mxGeometry x="200" y="630" width="120" height="40" as="geometry" />
        </mxCell>
        <mxCell id="aqqptmSZhaTzbbPc9Eve-38" value="SWITCH" style="rounded=0;whiteSpace=wrap;html=1;" vertex="1" parent="1">
          <mxGeometry x="120" y="750" width="280" height="40" as="geometry" />
        </mxCell>
        <mxCell id="aqqptmSZhaTzbbPc9Eve-39" value="Card 0" style="rounded=0;whiteSpace=wrap;html=1;" vertex="1" parent="1">
          <mxGeometry x="120" y="870" width="40" height="120" as="geometry" />
        </mxCell>
        <mxCell id="aqqptmSZhaTzbbPc9Eve-40" value="Card 1" style="rounded=0;whiteSpace=wrap;html=1;" vertex="1" parent="1">
          <mxGeometry x="200" y="870" width="40" height="120" as="geometry" />
        </mxCell>
        <mxCell id="aqqptmSZhaTzbbPc9Eve-41" value="Card 2" style="rounded=0;whiteSpace=wrap;html=1;" vertex="1" parent="1">
          <mxGeometry x="280" y="870" width="40" height="120" as="geometry" />
        </mxCell>
        <mxCell id="aqqptmSZhaTzbbPc9Eve-42" value="Card 3" style="rounded=0;whiteSpace=wrap;html=1;" vertex="1" parent="1">
          <mxGeometry x="360" y="870" width="40" height="120" as="geometry" />
        </mxCell>
        <mxCell id="aqqptmSZhaTzbbPc9Eve-43" value="X/4" style="shape=flexArrow;endArrow=classic;startArrow=classic;html=1;rounded=0;entryX=0.358;entryY=1.031;entryDx=0;entryDy=0;entryPerimeter=0;exitX=0.5;exitY=0;exitDx=0;exitDy=0;" edge="1" parent="1" source="aqqptmSZhaTzbbPc9Eve-40" target="aqqptmSZhaTzbbPc9Eve-38">
          <mxGeometry width="100" height="100" relative="1" as="geometry">
            <mxPoint x="450" y="1140" as="sourcePoint" />
            <mxPoint x="550" y="1040" as="targetPoint" />
          </mxGeometry>
        </mxCell>
        <mxCell id="aqqptmSZhaTzbbPc9Eve-44" value="" style="shape=flexArrow;endArrow=classic;startArrow=classic;html=1;rounded=0;entryX=0.358;entryY=1.031;entryDx=0;entryDy=0;entryPerimeter=0;exitX=0.5;exitY=0;exitDx=0;exitDy=0;" edge="1" parent="1">
          <mxGeometry width="100" height="100" relative="1" as="geometry">
            <mxPoint x="379.85" y="869" as="sourcePoint" />
            <mxPoint x="379.85" y="790" as="targetPoint" />
          </mxGeometry>
        </mxCell>
        <mxCell id="aqqptmSZhaTzbbPc9Eve-45" value="X/4" style="edgeLabel;html=1;align=center;verticalAlign=middle;resizable=0;points=[];" vertex="1" connectable="0" parent="aqqptmSZhaTzbbPc9Eve-44">
          <mxGeometry x="-0.0079" y="-1" relative="1" as="geometry">
            <mxPoint as="offset" />
          </mxGeometry>
        </mxCell>
        <mxCell id="aqqptmSZhaTzbbPc9Eve-46" value="X/4" style="shape=flexArrow;endArrow=classic;startArrow=classic;html=1;rounded=0;entryX=0.358;entryY=1.031;entryDx=0;entryDy=0;entryPerimeter=0;exitX=0.5;exitY=0;exitDx=0;exitDy=0;" edge="1" parent="1">
          <mxGeometry width="100" height="100" relative="1" as="geometry">
            <mxPoint x="299.85" y="869" as="sourcePoint" />
            <mxPoint x="299.85" y="790" as="targetPoint" />
          </mxGeometry>
        </mxCell>
        <mxCell id="aqqptmSZhaTzbbPc9Eve-47" value="" style="shape=flexArrow;endArrow=classic;startArrow=classic;html=1;rounded=0;entryX=0.358;entryY=1.031;entryDx=0;entryDy=0;entryPerimeter=0;exitX=0.5;exitY=0;exitDx=0;exitDy=0;" edge="1" parent="1">
          <mxGeometry width="100" height="100" relative="1" as="geometry">
            <mxPoint x="139.85000000000002" y="870" as="sourcePoint" />
            <mxPoint x="139.85000000000002" y="791" as="targetPoint" />
          </mxGeometry>
        </mxCell>
        <mxCell id="aqqptmSZhaTzbbPc9Eve-48" value="X/4" style="edgeLabel;html=1;align=center;verticalAlign=middle;resizable=0;points=[];" vertex="1" connectable="0" parent="aqqptmSZhaTzbbPc9Eve-47">
          <mxGeometry x="-0.0142" relative="1" as="geometry">
            <mxPoint as="offset" />
          </mxGeometry>
        </mxCell>
        <mxCell id="aqqptmSZhaTzbbPc9Eve-49" value="" style="shape=flexArrow;endArrow=classic;startArrow=classic;html=1;rounded=0;entryX=0.358;entryY=1.031;entryDx=0;entryDy=0;entryPerimeter=0;exitX=0.5;exitY=0;exitDx=0;exitDy=0;" edge="1" parent="1">
          <mxGeometry width="100" height="100" relative="1" as="geometry">
            <mxPoint x="259.85" y="750" as="sourcePoint" />
            <mxPoint x="259.85" y="671" as="targetPoint" />
          </mxGeometry>
        </mxCell>
        <mxCell id="aqqptmSZhaTzbbPc9Eve-50" value="IB 0" style="rounded=0;whiteSpace=wrap;html=1;" vertex="1" parent="1">
          <mxGeometry x="440" y="870" width="40" height="120" as="geometry" />
        </mxCell>
        <mxCell id="aqqptmSZhaTzbbPc9Eve-51" value="X G/s" style="endArrow=classic;startArrow=classic;html=1;rounded=0;entryX=0.5;entryY=0;entryDx=0;entryDy=0;exitX=1;exitY=0.5;exitDx=0;exitDy=0;" edge="1" parent="1" source="aqqptmSZhaTzbbPc9Eve-38" target="aqqptmSZhaTzbbPc9Eve-50">
          <mxGeometry width="50" height="50" relative="1" as="geometry">
            <mxPoint x="280" y="860" as="sourcePoint" />
            <mxPoint x="330" y="810" as="targetPoint" />
            <Array as="points">
              <mxPoint x="460" y="770" />
            </Array>
          </mxGeometry>
        </mxCell>
        <mxCell id="aqqptmSZhaTzbbPc9Eve-52" value="CPU 1" style="rounded=0;whiteSpace=wrap;html=1;" vertex="1" parent="1">
          <mxGeometry x="600" y="630" width="120" height="40" as="geometry" />
        </mxCell>
        <mxCell id="aqqptmSZhaTzbbPc9Eve-53" value="SWITCH" style="rounded=0;whiteSpace=wrap;html=1;" vertex="1" parent="1">
          <mxGeometry x="520" y="750" width="280" height="40" as="geometry" />
        </mxCell>
        <mxCell id="aqqptmSZhaTzbbPc9Eve-54" value="Card 4" style="rounded=0;whiteSpace=wrap;html=1;" vertex="1" parent="1">
          <mxGeometry x="520" y="870" width="40" height="120" as="geometry" />
        </mxCell>
        <mxCell id="aqqptmSZhaTzbbPc9Eve-55" value="Card 5" style="rounded=0;whiteSpace=wrap;html=1;" vertex="1" parent="1">
          <mxGeometry x="600" y="870" width="40" height="120" as="geometry" />
        </mxCell>
        <mxCell id="aqqptmSZhaTzbbPc9Eve-56" value="Card 6" style="rounded=0;whiteSpace=wrap;html=1;" vertex="1" parent="1">
          <mxGeometry x="680" y="870" width="40" height="120" as="geometry" />
        </mxCell>
        <mxCell id="aqqptmSZhaTzbbPc9Eve-57" value="Card 7" style="rounded=0;whiteSpace=wrap;html=1;" vertex="1" parent="1">
          <mxGeometry x="760" y="870" width="40" height="120" as="geometry" />
        </mxCell>
        <mxCell id="aqqptmSZhaTzbbPc9Eve-58" value="X/4" style="shape=flexArrow;endArrow=classic;startArrow=classic;html=1;rounded=0;entryX=0.358;entryY=1.031;entryDx=0;entryDy=0;entryPerimeter=0;exitX=0.5;exitY=0;exitDx=0;exitDy=0;" edge="1" parent="1" source="aqqptmSZhaTzbbPc9Eve-55" target="aqqptmSZhaTzbbPc9Eve-53">
          <mxGeometry width="100" height="100" relative="1" as="geometry">
            <mxPoint x="850" y="1140" as="sourcePoint" />
            <mxPoint x="950" y="1040" as="targetPoint" />
          </mxGeometry>
        </mxCell>
        <mxCell id="aqqptmSZhaTzbbPc9Eve-59" value="X/4" style="shape=flexArrow;endArrow=classic;startArrow=classic;html=1;rounded=0;entryX=0.358;entryY=1.031;entryDx=0;entryDy=0;entryPerimeter=0;exitX=0.5;exitY=0;exitDx=0;exitDy=0;" edge="1" parent="1">
          <mxGeometry width="100" height="100" relative="1" as="geometry">
            <mxPoint x="779.85" y="869" as="sourcePoint" />
            <mxPoint x="779.85" y="790" as="targetPoint" />
          </mxGeometry>
        </mxCell>
        <mxCell id="aqqptmSZhaTzbbPc9Eve-60" value="X/4" style="shape=flexArrow;endArrow=classic;startArrow=classic;html=1;rounded=0;entryX=0.358;entryY=1.031;entryDx=0;entryDy=0;entryPerimeter=0;exitX=0.5;exitY=0;exitDx=0;exitDy=0;" edge="1" parent="1">
          <mxGeometry width="100" height="100" relative="1" as="geometry">
            <mxPoint x="699.85" y="869" as="sourcePoint" />
            <mxPoint x="699.85" y="790" as="targetPoint" />
          </mxGeometry>
        </mxCell>
        <mxCell id="aqqptmSZhaTzbbPc9Eve-61" value="X/4" style="shape=flexArrow;endArrow=classic;startArrow=classic;html=1;rounded=0;entryX=0.358;entryY=1.031;entryDx=0;entryDy=0;entryPerimeter=0;exitX=0.5;exitY=0;exitDx=0;exitDy=0;" edge="1" parent="1">
          <mxGeometry width="100" height="100" relative="1" as="geometry">
            <mxPoint x="539.85" y="870" as="sourcePoint" />
            <mxPoint x="539.85" y="791" as="targetPoint" />
          </mxGeometry>
        </mxCell>
        <mxCell id="aqqptmSZhaTzbbPc9Eve-62" value="" style="shape=flexArrow;endArrow=classic;startArrow=classic;html=1;rounded=0;entryX=0.358;entryY=1.031;entryDx=0;entryDy=0;entryPerimeter=0;exitX=0.5;exitY=0;exitDx=0;exitDy=0;" edge="1" parent="1">
          <mxGeometry width="100" height="100" relative="1" as="geometry">
            <mxPoint x="659.85" y="750" as="sourcePoint" />
            <mxPoint x="659.85" y="671" as="targetPoint" />
          </mxGeometry>
        </mxCell>
        <mxCell id="aqqptmSZhaTzbbPc9Eve-63" value="IB 2" style="rounded=0;whiteSpace=wrap;html=1;" vertex="1" parent="1">
          <mxGeometry x="840" y="870" width="40" height="120" as="geometry" />
        </mxCell>
        <mxCell id="aqqptmSZhaTzbbPc9Eve-64" value="XG/s" style="endArrow=classic;startArrow=classic;html=1;rounded=0;entryX=0.5;entryY=0;entryDx=0;entryDy=0;exitX=1;exitY=0.5;exitDx=0;exitDy=0;" edge="1" parent="1" source="aqqptmSZhaTzbbPc9Eve-53" target="aqqptmSZhaTzbbPc9Eve-63">
          <mxGeometry width="50" height="50" relative="1" as="geometry">
            <mxPoint x="680" y="860" as="sourcePoint" />
            <mxPoint x="730" y="810" as="targetPoint" />
            <Array as="points">
              <mxPoint x="860" y="770" />
            </Array>
          </mxGeometry>
        </mxCell>
        <mxCell id="aqqptmSZhaTzbbPc9Eve-65" value="IB 1" style="rounded=0;whiteSpace=wrap;html=1;" vertex="1" parent="1">
          <mxGeometry x="40" y="870" width="40" height="120" as="geometry" />
        </mxCell>
        <mxCell id="aqqptmSZhaTzbbPc9Eve-66" value="" style="endArrow=classic;startArrow=classic;html=1;rounded=0;entryX=0.5;entryY=0;entryDx=0;entryDy=0;exitX=0;exitY=0.5;exitDx=0;exitDy=0;" edge="1" parent="1" source="aqqptmSZhaTzbbPc9Eve-37" target="aqqptmSZhaTzbbPc9Eve-65">
          <mxGeometry width="50" height="50" relative="1" as="geometry">
            <mxPoint x="410" y="780" as="sourcePoint" />
            <mxPoint x="470" y="880" as="targetPoint" />
            <Array as="points">
              <mxPoint x="60" y="650" />
            </Array>
          </mxGeometry>
        </mxCell>
        <mxCell id="aqqptmSZhaTzbbPc9Eve-67" value="" style="endArrow=classic;startArrow=classic;html=1;rounded=0;entryX=0;entryY=0.5;entryDx=0;entryDy=0;exitX=1;exitY=0.5;exitDx=0;exitDy=0;" edge="1" parent="1" source="aqqptmSZhaTzbbPc9Eve-37" target="aqqptmSZhaTzbbPc9Eve-52">
          <mxGeometry width="50" height="50" relative="1" as="geometry">
            <mxPoint x="480" y="790" as="sourcePoint" />
            <mxPoint x="530" y="740" as="targetPoint" />
          </mxGeometry>
        </mxCell>
        <mxCell id="aqqptmSZhaTzbbPc9Eve-68" value="UPI" style="edgeLabel;html=1;align=center;verticalAlign=middle;resizable=0;points=[];" vertex="1" connectable="0" parent="aqqptmSZhaTzbbPc9Eve-67">
          <mxGeometry x="0.071" relative="1" as="geometry">
            <mxPoint as="offset" />
          </mxGeometry>
        </mxCell>
        <mxCell id="aqqptmSZhaTzbbPc9Eve-69" value="" style="endArrow=classic;startArrow=classic;html=1;rounded=0;entryX=1;entryY=0.5;entryDx=0;entryDy=0;exitX=0.5;exitY=0;exitDx=0;exitDy=0;" edge="1" parent="1" source="aqqptmSZhaTzbbPc9Eve-70" target="aqqptmSZhaTzbbPc9Eve-52">
          <mxGeometry width="50" height="50" relative="1" as="geometry">
            <mxPoint x="480" y="790" as="sourcePoint" />
            <mxPoint x="530" y="740" as="targetPoint" />
            <Array as="points">
              <mxPoint x="940" y="650" />
            </Array>
          </mxGeometry>
        </mxCell>
        <mxCell id="aqqptmSZhaTzbbPc9Eve-70" value="IB 3" style="rounded=0;whiteSpace=wrap;html=1;" vertex="1" parent="1">
          <mxGeometry x="920" y="870" width="40" height="120" as="geometry" />
        </mxCell>
        <mxCell id="aqqptmSZhaTzbbPc9Eve-71" value="第一步：Sharp&amp;nbsp;Reduce" style="text;html=1;strokeColor=none;fillColor=none;align=center;verticalAlign=middle;whiteSpace=wrap;rounded=0;" vertex="1" parent="1">
          <mxGeometry x="390" y="560" width="160" height="30" as="geometry" />
        </mxCell>
        <mxCell id="aqqptmSZhaTzbbPc9Eve-106" value="第三步：Allgather" style="text;html=1;strokeColor=none;fillColor=none;align=center;verticalAlign=middle;whiteSpace=wrap;rounded=0;" vertex="1" parent="1">
          <mxGeometry x="390" y="1080" width="160" height="30" as="geometry" />
        </mxCell>
        <mxCell id="aqqptmSZhaTzbbPc9Eve-107" value="CPU 1" style="rounded=0;whiteSpace=wrap;html=1;" vertex="1" parent="1">
          <mxGeometry x="200" y="1120" width="120" height="40" as="geometry" />
        </mxCell>
        <mxCell id="aqqptmSZhaTzbbPc9Eve-108" value="SWITCH" style="rounded=0;whiteSpace=wrap;html=1;" vertex="1" parent="1">
          <mxGeometry x="120" y="1240" width="280" height="40" as="geometry" />
        </mxCell>
        <mxCell id="aqqptmSZhaTzbbPc9Eve-109" value="Card 0" style="rounded=0;whiteSpace=wrap;html=1;" vertex="1" parent="1">
          <mxGeometry x="120" y="1360" width="40" height="120" as="geometry" />
        </mxCell>
        <mxCell id="aqqptmSZhaTzbbPc9Eve-110" value="Card 1" style="rounded=0;whiteSpace=wrap;html=1;" vertex="1" parent="1">
          <mxGeometry x="200" y="1360" width="40" height="120" as="geometry" />
        </mxCell>
        <mxCell id="aqqptmSZhaTzbbPc9Eve-111" value="Card 2" style="rounded=0;whiteSpace=wrap;html=1;" vertex="1" parent="1">
          <mxGeometry x="280" y="1360" width="40" height="120" as="geometry" />
        </mxCell>
        <mxCell id="aqqptmSZhaTzbbPc9Eve-112" value="Card 3" style="rounded=0;whiteSpace=wrap;html=1;" vertex="1" parent="1">
          <mxGeometry x="360" y="1360" width="40" height="120" as="geometry" />
        </mxCell>
        <mxCell id="aqqptmSZhaTzbbPc9Eve-113" value="3X/4" style="shape=flexArrow;endArrow=classic;startArrow=classic;html=1;rounded=0;entryX=0.358;entryY=1.031;entryDx=0;entryDy=0;entryPerimeter=0;exitX=0.5;exitY=0;exitDx=0;exitDy=0;" edge="1" parent="1" source="aqqptmSZhaTzbbPc9Eve-110" target="aqqptmSZhaTzbbPc9Eve-108">
          <mxGeometry width="100" height="100" relative="1" as="geometry">
            <mxPoint x="450" y="1630" as="sourcePoint" />
            <mxPoint x="550" y="1530" as="targetPoint" />
          </mxGeometry>
        </mxCell>
        <mxCell id="aqqptmSZhaTzbbPc9Eve-114" value="" style="shape=flexArrow;endArrow=classic;startArrow=classic;html=1;rounded=0;entryX=0.358;entryY=1.031;entryDx=0;entryDy=0;entryPerimeter=0;exitX=0.5;exitY=0;exitDx=0;exitDy=0;" edge="1" parent="1">
          <mxGeometry width="100" height="100" relative="1" as="geometry">
            <mxPoint x="379.85" y="1359" as="sourcePoint" />
            <mxPoint x="379.85" y="1280" as="targetPoint" />
          </mxGeometry>
        </mxCell>
        <mxCell id="aqqptmSZhaTzbbPc9Eve-115" value="3X/4" style="edgeLabel;html=1;align=center;verticalAlign=middle;resizable=0;points=[];" vertex="1" connectable="0" parent="aqqptmSZhaTzbbPc9Eve-114">
          <mxGeometry x="-0.0079" y="-1" relative="1" as="geometry">
            <mxPoint as="offset" />
          </mxGeometry>
        </mxCell>
        <mxCell id="aqqptmSZhaTzbbPc9Eve-116" value="3X/4" style="shape=flexArrow;endArrow=classic;startArrow=classic;html=1;rounded=0;entryX=0.358;entryY=1.031;entryDx=0;entryDy=0;entryPerimeter=0;exitX=0.5;exitY=0;exitDx=0;exitDy=0;" edge="1" parent="1">
          <mxGeometry width="100" height="100" relative="1" as="geometry">
            <mxPoint x="299.85" y="1359" as="sourcePoint" />
            <mxPoint x="299.85" y="1280" as="targetPoint" />
          </mxGeometry>
        </mxCell>
        <mxCell id="aqqptmSZhaTzbbPc9Eve-117" value="" style="shape=flexArrow;endArrow=classic;startArrow=classic;html=1;rounded=0;entryX=0.358;entryY=1.031;entryDx=0;entryDy=0;entryPerimeter=0;exitX=0.5;exitY=0;exitDx=0;exitDy=0;" edge="1" parent="1">
          <mxGeometry width="100" height="100" relative="1" as="geometry">
            <mxPoint x="139.85000000000002" y="1360" as="sourcePoint" />
            <mxPoint x="139.85000000000002" y="1281" as="targetPoint" />
          </mxGeometry>
        </mxCell>
        <mxCell id="aqqptmSZhaTzbbPc9Eve-118" value="3X/4" style="edgeLabel;html=1;align=center;verticalAlign=middle;resizable=0;points=[];" vertex="1" connectable="0" parent="aqqptmSZhaTzbbPc9Eve-117">
          <mxGeometry x="-0.0142" relative="1" as="geometry">
            <mxPoint as="offset" />
          </mxGeometry>
        </mxCell>
        <mxCell id="aqqptmSZhaTzbbPc9Eve-119" value="" style="shape=flexArrow;endArrow=classic;startArrow=classic;html=1;rounded=0;entryX=0.358;entryY=1.031;entryDx=0;entryDy=0;entryPerimeter=0;exitX=0.5;exitY=0;exitDx=0;exitDy=0;" edge="1" parent="1">
          <mxGeometry width="100" height="100" relative="1" as="geometry">
            <mxPoint x="259.85" y="1240" as="sourcePoint" />
            <mxPoint x="259.85" y="1161" as="targetPoint" />
          </mxGeometry>
        </mxCell>
        <mxCell id="aqqptmSZhaTzbbPc9Eve-120" value="IB 0" style="rounded=0;whiteSpace=wrap;html=1;" vertex="1" parent="1">
          <mxGeometry x="440" y="1360" width="40" height="120" as="geometry" />
        </mxCell>
        <mxCell id="aqqptmSZhaTzbbPc9Eve-121" value="0 G/s" style="endArrow=classic;startArrow=classic;html=1;rounded=0;entryX=0.5;entryY=0;entryDx=0;entryDy=0;exitX=1;exitY=0.5;exitDx=0;exitDy=0;" edge="1" parent="1" source="aqqptmSZhaTzbbPc9Eve-108" target="aqqptmSZhaTzbbPc9Eve-120">
          <mxGeometry width="50" height="50" relative="1" as="geometry">
            <mxPoint x="280" y="1350" as="sourcePoint" />
            <mxPoint x="330" y="1300" as="targetPoint" />
            <Array as="points">
              <mxPoint x="460" y="1260" />
            </Array>
          </mxGeometry>
        </mxCell>
        <mxCell id="aqqptmSZhaTzbbPc9Eve-122" value="CPU 1" style="rounded=0;whiteSpace=wrap;html=1;" vertex="1" parent="1">
          <mxGeometry x="600" y="1120" width="120" height="40" as="geometry" />
        </mxCell>
        <mxCell id="aqqptmSZhaTzbbPc9Eve-123" value="SWITCH" style="rounded=0;whiteSpace=wrap;html=1;" vertex="1" parent="1">
          <mxGeometry x="520" y="1240" width="280" height="40" as="geometry" />
        </mxCell>
        <mxCell id="aqqptmSZhaTzbbPc9Eve-124" value="Card 4" style="rounded=0;whiteSpace=wrap;html=1;" vertex="1" parent="1">
          <mxGeometry x="520" y="1360" width="40" height="120" as="geometry" />
        </mxCell>
        <mxCell id="aqqptmSZhaTzbbPc9Eve-125" value="Card 5" style="rounded=0;whiteSpace=wrap;html=1;" vertex="1" parent="1">
          <mxGeometry x="600" y="1360" width="40" height="120" as="geometry" />
        </mxCell>
        <mxCell id="aqqptmSZhaTzbbPc9Eve-126" value="Card 6" style="rounded=0;whiteSpace=wrap;html=1;" vertex="1" parent="1">
          <mxGeometry x="680" y="1360" width="40" height="120" as="geometry" />
        </mxCell>
        <mxCell id="aqqptmSZhaTzbbPc9Eve-127" value="Card 7" style="rounded=0;whiteSpace=wrap;html=1;" vertex="1" parent="1">
          <mxGeometry x="760" y="1360" width="40" height="120" as="geometry" />
        </mxCell>
        <mxCell id="aqqptmSZhaTzbbPc9Eve-128" value="3X/4" style="shape=flexArrow;endArrow=classic;startArrow=classic;html=1;rounded=0;entryX=0.358;entryY=1.031;entryDx=0;entryDy=0;entryPerimeter=0;exitX=0.5;exitY=0;exitDx=0;exitDy=0;" edge="1" parent="1" source="aqqptmSZhaTzbbPc9Eve-125" target="aqqptmSZhaTzbbPc9Eve-123">
          <mxGeometry width="100" height="100" relative="1" as="geometry">
            <mxPoint x="850" y="1630" as="sourcePoint" />
            <mxPoint x="950" y="1530" as="targetPoint" />
          </mxGeometry>
        </mxCell>
        <mxCell id="aqqptmSZhaTzbbPc9Eve-129" value="3X/4" style="shape=flexArrow;endArrow=classic;startArrow=classic;html=1;rounded=0;entryX=0.358;entryY=1.031;entryDx=0;entryDy=0;entryPerimeter=0;exitX=0.5;exitY=0;exitDx=0;exitDy=0;" edge="1" parent="1">
          <mxGeometry width="100" height="100" relative="1" as="geometry">
            <mxPoint x="779.85" y="1359" as="sourcePoint" />
            <mxPoint x="779.85" y="1280" as="targetPoint" />
          </mxGeometry>
        </mxCell>
        <mxCell id="aqqptmSZhaTzbbPc9Eve-130" value="3X/4" style="shape=flexArrow;endArrow=classic;startArrow=classic;html=1;rounded=0;entryX=0.358;entryY=1.031;entryDx=0;entryDy=0;entryPerimeter=0;exitX=0.5;exitY=0;exitDx=0;exitDy=0;" edge="1" parent="1">
          <mxGeometry width="100" height="100" relative="1" as="geometry">
            <mxPoint x="699.85" y="1359" as="sourcePoint" />
            <mxPoint x="699.85" y="1280" as="targetPoint" />
          </mxGeometry>
        </mxCell>
        <mxCell id="aqqptmSZhaTzbbPc9Eve-131" value="3X/4" style="shape=flexArrow;endArrow=classic;startArrow=classic;html=1;rounded=0;entryX=0.358;entryY=1.031;entryDx=0;entryDy=0;entryPerimeter=0;exitX=0.5;exitY=0;exitDx=0;exitDy=0;" edge="1" parent="1">
          <mxGeometry width="100" height="100" relative="1" as="geometry">
            <mxPoint x="539.85" y="1360" as="sourcePoint" />
            <mxPoint x="539.85" y="1281" as="targetPoint" />
          </mxGeometry>
        </mxCell>
        <mxCell id="aqqptmSZhaTzbbPc9Eve-132" value="" style="shape=flexArrow;endArrow=classic;startArrow=classic;html=1;rounded=0;entryX=0.358;entryY=1.031;entryDx=0;entryDy=0;entryPerimeter=0;exitX=0.5;exitY=0;exitDx=0;exitDy=0;" edge="1" parent="1">
          <mxGeometry width="100" height="100" relative="1" as="geometry">
            <mxPoint x="659.85" y="1240" as="sourcePoint" />
            <mxPoint x="659.85" y="1161" as="targetPoint" />
          </mxGeometry>
        </mxCell>
        <mxCell id="aqqptmSZhaTzbbPc9Eve-133" value="IB 2" style="rounded=0;whiteSpace=wrap;html=1;" vertex="1" parent="1">
          <mxGeometry x="840" y="1360" width="40" height="120" as="geometry" />
        </mxCell>
        <mxCell id="aqqptmSZhaTzbbPc9Eve-134" value="0G/s" style="endArrow=classic;startArrow=classic;html=1;rounded=0;entryX=0.5;entryY=0;entryDx=0;entryDy=0;exitX=1;exitY=0.5;exitDx=0;exitDy=0;" edge="1" parent="1" source="aqqptmSZhaTzbbPc9Eve-123" target="aqqptmSZhaTzbbPc9Eve-133">
          <mxGeometry width="50" height="50" relative="1" as="geometry">
            <mxPoint x="680" y="1350" as="sourcePoint" />
            <mxPoint x="730" y="1300" as="targetPoint" />
            <Array as="points">
              <mxPoint x="860" y="1260" />
            </Array>
          </mxGeometry>
        </mxCell>
        <mxCell id="aqqptmSZhaTzbbPc9Eve-135" value="IB 1" style="rounded=0;whiteSpace=wrap;html=1;" vertex="1" parent="1">
          <mxGeometry x="40" y="1360" width="40" height="120" as="geometry" />
        </mxCell>
        <mxCell id="aqqptmSZhaTzbbPc9Eve-136" value="" style="endArrow=classic;startArrow=classic;html=1;rounded=0;entryX=0.5;entryY=0;entryDx=0;entryDy=0;exitX=0;exitY=0.5;exitDx=0;exitDy=0;" edge="1" parent="1" source="aqqptmSZhaTzbbPc9Eve-107" target="aqqptmSZhaTzbbPc9Eve-135">
          <mxGeometry width="50" height="50" relative="1" as="geometry">
            <mxPoint x="410" y="1270" as="sourcePoint" />
            <mxPoint x="470" y="1370" as="targetPoint" />
            <Array as="points">
              <mxPoint x="60" y="1140" />
            </Array>
          </mxGeometry>
        </mxCell>
        <mxCell id="aqqptmSZhaTzbbPc9Eve-137" value="" style="endArrow=classic;startArrow=classic;html=1;rounded=0;entryX=0;entryY=0.5;entryDx=0;entryDy=0;exitX=1;exitY=0.5;exitDx=0;exitDy=0;" edge="1" parent="1" source="aqqptmSZhaTzbbPc9Eve-107" target="aqqptmSZhaTzbbPc9Eve-122">
          <mxGeometry width="50" height="50" relative="1" as="geometry">
            <mxPoint x="480" y="1280" as="sourcePoint" />
            <mxPoint x="530" y="1230" as="targetPoint" />
          </mxGeometry>
        </mxCell>
        <mxCell id="aqqptmSZhaTzbbPc9Eve-138" value="UPI" style="edgeLabel;html=1;align=center;verticalAlign=middle;resizable=0;points=[];" vertex="1" connectable="0" parent="aqqptmSZhaTzbbPc9Eve-137">
          <mxGeometry x="0.071" relative="1" as="geometry">
            <mxPoint as="offset" />
          </mxGeometry>
        </mxCell>
        <mxCell id="aqqptmSZhaTzbbPc9Eve-139" value="" style="endArrow=classic;startArrow=classic;html=1;rounded=0;entryX=1;entryY=0.5;entryDx=0;entryDy=0;exitX=0.5;exitY=0;exitDx=0;exitDy=0;" edge="1" parent="1" source="aqqptmSZhaTzbbPc9Eve-140" target="aqqptmSZhaTzbbPc9Eve-122">
          <mxGeometry width="50" height="50" relative="1" as="geometry">
            <mxPoint x="480" y="1280" as="sourcePoint" />
            <mxPoint x="530" y="1230" as="targetPoint" />
            <Array as="points">
              <mxPoint x="940" y="1140" />
            </Array>
          </mxGeometry>
        </mxCell>
        <mxCell id="aqqptmSZhaTzbbPc9Eve-140" value="IB 3" style="rounded=0;whiteSpace=wrap;html=1;" vertex="1" parent="1">
          <mxGeometry x="920" y="1360" width="40" height="120" as="geometry" />
        </mxCell>
        <mxCell id="aqqptmSZhaTzbbPc9Eve-141" value="CPU 1" style="rounded=0;whiteSpace=wrap;html=1;" vertex="1" parent="1">
          <mxGeometry x="1320" y="120" width="120" height="40" as="geometry" />
        </mxCell>
        <mxCell id="aqqptmSZhaTzbbPc9Eve-142" value="SWITCH" style="rounded=0;whiteSpace=wrap;html=1;" vertex="1" parent="1">
          <mxGeometry x="1240" y="240" width="280" height="40" as="geometry" />
        </mxCell>
        <mxCell id="aqqptmSZhaTzbbPc9Eve-143" value="Card 0" style="rounded=0;whiteSpace=wrap;html=1;" vertex="1" parent="1">
          <mxGeometry x="1240" y="360" width="40" height="120" as="geometry" />
        </mxCell>
        <mxCell id="aqqptmSZhaTzbbPc9Eve-144" value="Card 1" style="rounded=0;whiteSpace=wrap;html=1;" vertex="1" parent="1">
          <mxGeometry x="1320" y="360" width="40" height="120" as="geometry" />
        </mxCell>
        <mxCell id="aqqptmSZhaTzbbPc9Eve-145" value="Card 2" style="rounded=0;whiteSpace=wrap;html=1;" vertex="1" parent="1">
          <mxGeometry x="1400" y="360" width="40" height="120" as="geometry" />
        </mxCell>
        <mxCell id="aqqptmSZhaTzbbPc9Eve-146" value="Card 3" style="rounded=0;whiteSpace=wrap;html=1;" vertex="1" parent="1">
          <mxGeometry x="1480" y="360" width="40" height="120" as="geometry" />
        </mxCell>
        <mxCell id="aqqptmSZhaTzbbPc9Eve-147" value="X/2" style="shape=flexArrow;endArrow=classic;startArrow=classic;html=1;rounded=0;entryX=0.358;entryY=1.031;entryDx=0;entryDy=0;entryPerimeter=0;exitX=0.5;exitY=0;exitDx=0;exitDy=0;" edge="1" parent="1" source="aqqptmSZhaTzbbPc9Eve-144" target="aqqptmSZhaTzbbPc9Eve-142">
          <mxGeometry width="100" height="100" relative="1" as="geometry">
            <mxPoint x="1570" y="630" as="sourcePoint" />
            <mxPoint x="1670" y="530" as="targetPoint" />
          </mxGeometry>
        </mxCell>
        <mxCell id="aqqptmSZhaTzbbPc9Eve-148" value="" style="shape=flexArrow;endArrow=classic;startArrow=classic;html=1;rounded=0;entryX=0.358;entryY=1.031;entryDx=0;entryDy=0;entryPerimeter=0;exitX=0.5;exitY=0;exitDx=0;exitDy=0;" edge="1" parent="1">
          <mxGeometry width="100" height="100" relative="1" as="geometry">
            <mxPoint x="1499.85" y="359" as="sourcePoint" />
            <mxPoint x="1499.85" y="280" as="targetPoint" />
          </mxGeometry>
        </mxCell>
        <mxCell id="aqqptmSZhaTzbbPc9Eve-149" value="X/2" style="edgeLabel;html=1;align=center;verticalAlign=middle;resizable=0;points=[];" vertex="1" connectable="0" parent="aqqptmSZhaTzbbPc9Eve-148">
          <mxGeometry x="-0.0079" y="-1" relative="1" as="geometry">
            <mxPoint as="offset" />
          </mxGeometry>
        </mxCell>
        <mxCell id="aqqptmSZhaTzbbPc9Eve-150" value="X/2" style="shape=flexArrow;endArrow=classic;startArrow=classic;html=1;rounded=0;entryX=0.358;entryY=1.031;entryDx=0;entryDy=0;entryPerimeter=0;exitX=0.5;exitY=0;exitDx=0;exitDy=0;" edge="1" parent="1">
          <mxGeometry width="100" height="100" relative="1" as="geometry">
            <mxPoint x="1419.85" y="359" as="sourcePoint" />
            <mxPoint x="1419.85" y="280" as="targetPoint" />
          </mxGeometry>
        </mxCell>
        <mxCell id="aqqptmSZhaTzbbPc9Eve-151" value="" style="shape=flexArrow;endArrow=classic;startArrow=classic;html=1;rounded=0;entryX=0.358;entryY=1.031;entryDx=0;entryDy=0;entryPerimeter=0;exitX=0.5;exitY=0;exitDx=0;exitDy=0;" edge="1" parent="1">
          <mxGeometry width="100" height="100" relative="1" as="geometry">
            <mxPoint x="1259.85" y="360" as="sourcePoint" />
            <mxPoint x="1259.85" y="281" as="targetPoint" />
          </mxGeometry>
        </mxCell>
        <mxCell id="aqqptmSZhaTzbbPc9Eve-152" value="X/2" style="edgeLabel;html=1;align=center;verticalAlign=middle;resizable=0;points=[];" vertex="1" connectable="0" parent="aqqptmSZhaTzbbPc9Eve-151">
          <mxGeometry x="-0.0142" relative="1" as="geometry">
            <mxPoint as="offset" />
          </mxGeometry>
        </mxCell>
        <mxCell id="aqqptmSZhaTzbbPc9Eve-153" value="" style="shape=flexArrow;endArrow=classic;startArrow=classic;html=1;rounded=0;entryX=0.358;entryY=1.031;entryDx=0;entryDy=0;entryPerimeter=0;exitX=0.5;exitY=0;exitDx=0;exitDy=0;" edge="1" parent="1">
          <mxGeometry width="100" height="100" relative="1" as="geometry">
            <mxPoint x="1379.85" y="240" as="sourcePoint" />
            <mxPoint x="1379.85" y="161" as="targetPoint" />
          </mxGeometry>
        </mxCell>
        <mxCell id="aqqptmSZhaTzbbPc9Eve-154" value="IB 0" style="rounded=0;whiteSpace=wrap;html=1;" vertex="1" parent="1">
          <mxGeometry x="1560" y="360" width="40" height="120" as="geometry" />
        </mxCell>
        <mxCell id="aqqptmSZhaTzbbPc9Eve-155" value="0 G/s" style="endArrow=classic;startArrow=classic;html=1;rounded=0;entryX=0.5;entryY=0;entryDx=0;entryDy=0;exitX=1;exitY=0.5;exitDx=0;exitDy=0;" edge="1" parent="1" source="aqqptmSZhaTzbbPc9Eve-142" target="aqqptmSZhaTzbbPc9Eve-154">
          <mxGeometry width="50" height="50" relative="1" as="geometry">
            <mxPoint x="1400" y="350" as="sourcePoint" />
            <mxPoint x="1450" y="300" as="targetPoint" />
            <Array as="points">
              <mxPoint x="1580" y="260" />
            </Array>
          </mxGeometry>
        </mxCell>
        <mxCell id="aqqptmSZhaTzbbPc9Eve-156" value="CPU 1" style="rounded=0;whiteSpace=wrap;html=1;" vertex="1" parent="1">
          <mxGeometry x="1720" y="120" width="120" height="40" as="geometry" />
        </mxCell>
        <mxCell id="aqqptmSZhaTzbbPc9Eve-157" value="SWITCH" style="rounded=0;whiteSpace=wrap;html=1;" vertex="1" parent="1">
          <mxGeometry x="1640" y="240" width="280" height="40" as="geometry" />
        </mxCell>
        <mxCell id="aqqptmSZhaTzbbPc9Eve-158" value="Card 4" style="rounded=0;whiteSpace=wrap;html=1;" vertex="1" parent="1">
          <mxGeometry x="1640" y="360" width="40" height="120" as="geometry" />
        </mxCell>
        <mxCell id="aqqptmSZhaTzbbPc9Eve-159" value="Card 5" style="rounded=0;whiteSpace=wrap;html=1;" vertex="1" parent="1">
          <mxGeometry x="1720" y="360" width="40" height="120" as="geometry" />
        </mxCell>
        <mxCell id="aqqptmSZhaTzbbPc9Eve-160" value="Card 6" style="rounded=0;whiteSpace=wrap;html=1;" vertex="1" parent="1">
          <mxGeometry x="1800" y="360" width="40" height="120" as="geometry" />
        </mxCell>
        <mxCell id="aqqptmSZhaTzbbPc9Eve-161" value="Card 7" style="rounded=0;whiteSpace=wrap;html=1;" vertex="1" parent="1">
          <mxGeometry x="1880" y="360" width="40" height="120" as="geometry" />
        </mxCell>
        <mxCell id="aqqptmSZhaTzbbPc9Eve-162" value="X/2" style="shape=flexArrow;endArrow=classic;startArrow=classic;html=1;rounded=0;entryX=0.358;entryY=1.031;entryDx=0;entryDy=0;entryPerimeter=0;exitX=0.5;exitY=0;exitDx=0;exitDy=0;" edge="1" parent="1" source="aqqptmSZhaTzbbPc9Eve-159" target="aqqptmSZhaTzbbPc9Eve-157">
          <mxGeometry width="100" height="100" relative="1" as="geometry">
            <mxPoint x="1970" y="630" as="sourcePoint" />
            <mxPoint x="2070" y="530" as="targetPoint" />
          </mxGeometry>
        </mxCell>
        <mxCell id="aqqptmSZhaTzbbPc9Eve-163" value="X/2" style="shape=flexArrow;endArrow=classic;startArrow=classic;html=1;rounded=0;entryX=0.358;entryY=1.031;entryDx=0;entryDy=0;entryPerimeter=0;exitX=0.5;exitY=0;exitDx=0;exitDy=0;" edge="1" parent="1">
          <mxGeometry width="100" height="100" relative="1" as="geometry">
            <mxPoint x="1899.85" y="359" as="sourcePoint" />
            <mxPoint x="1899.85" y="280" as="targetPoint" />
          </mxGeometry>
        </mxCell>
        <mxCell id="aqqptmSZhaTzbbPc9Eve-164" value="X/2" style="shape=flexArrow;endArrow=classic;startArrow=classic;html=1;rounded=0;entryX=0.358;entryY=1.031;entryDx=0;entryDy=0;entryPerimeter=0;exitX=0.5;exitY=0;exitDx=0;exitDy=0;" edge="1" parent="1">
          <mxGeometry width="100" height="100" relative="1" as="geometry">
            <mxPoint x="1819.85" y="359" as="sourcePoint" />
            <mxPoint x="1819.85" y="280" as="targetPoint" />
          </mxGeometry>
        </mxCell>
        <mxCell id="aqqptmSZhaTzbbPc9Eve-165" value="X/2" style="shape=flexArrow;endArrow=classic;startArrow=classic;html=1;rounded=0;entryX=0.358;entryY=1.031;entryDx=0;entryDy=0;entryPerimeter=0;exitX=0.5;exitY=0;exitDx=0;exitDy=0;" edge="1" parent="1">
          <mxGeometry width="100" height="100" relative="1" as="geometry">
            <mxPoint x="1659.85" y="360" as="sourcePoint" />
            <mxPoint x="1659.85" y="281" as="targetPoint" />
          </mxGeometry>
        </mxCell>
        <mxCell id="aqqptmSZhaTzbbPc9Eve-166" value="" style="shape=flexArrow;endArrow=classic;startArrow=classic;html=1;rounded=0;entryX=0.358;entryY=1.031;entryDx=0;entryDy=0;entryPerimeter=0;exitX=0.5;exitY=0;exitDx=0;exitDy=0;" edge="1" parent="1">
          <mxGeometry width="100" height="100" relative="1" as="geometry">
            <mxPoint x="1779.85" y="240" as="sourcePoint" />
            <mxPoint x="1779.85" y="161" as="targetPoint" />
          </mxGeometry>
        </mxCell>
        <mxCell id="aqqptmSZhaTzbbPc9Eve-167" value="IB 2" style="rounded=0;whiteSpace=wrap;html=1;" vertex="1" parent="1">
          <mxGeometry x="1960" y="360" width="40" height="120" as="geometry" />
        </mxCell>
        <mxCell id="aqqptmSZhaTzbbPc9Eve-168" value="0G/s" style="endArrow=classic;startArrow=classic;html=1;rounded=0;entryX=0.5;entryY=0;entryDx=0;entryDy=0;exitX=1;exitY=0.5;exitDx=0;exitDy=0;" edge="1" parent="1" source="aqqptmSZhaTzbbPc9Eve-157" target="aqqptmSZhaTzbbPc9Eve-167">
          <mxGeometry width="50" height="50" relative="1" as="geometry">
            <mxPoint x="1800" y="350" as="sourcePoint" />
            <mxPoint x="1850" y="300" as="targetPoint" />
            <Array as="points">
              <mxPoint x="1980" y="260" />
            </Array>
          </mxGeometry>
        </mxCell>
        <mxCell id="aqqptmSZhaTzbbPc9Eve-169" value="IB 1" style="rounded=0;whiteSpace=wrap;html=1;" vertex="1" parent="1">
          <mxGeometry x="1160" y="360" width="40" height="120" as="geometry" />
        </mxCell>
        <mxCell id="aqqptmSZhaTzbbPc9Eve-170" value="" style="endArrow=classic;startArrow=classic;html=1;rounded=0;entryX=0.5;entryY=0;entryDx=0;entryDy=0;exitX=0;exitY=0.5;exitDx=0;exitDy=0;" edge="1" parent="1" source="aqqptmSZhaTzbbPc9Eve-141" target="aqqptmSZhaTzbbPc9Eve-169">
          <mxGeometry width="50" height="50" relative="1" as="geometry">
            <mxPoint x="1530" y="270" as="sourcePoint" />
            <mxPoint x="1590" y="370" as="targetPoint" />
            <Array as="points">
              <mxPoint x="1180" y="140" />
            </Array>
          </mxGeometry>
        </mxCell>
        <mxCell id="aqqptmSZhaTzbbPc9Eve-171" value="" style="endArrow=classic;startArrow=classic;html=1;rounded=0;entryX=0;entryY=0.5;entryDx=0;entryDy=0;exitX=1;exitY=0.5;exitDx=0;exitDy=0;" edge="1" parent="1" source="aqqptmSZhaTzbbPc9Eve-141" target="aqqptmSZhaTzbbPc9Eve-156">
          <mxGeometry width="50" height="50" relative="1" as="geometry">
            <mxPoint x="1600" y="280" as="sourcePoint" />
            <mxPoint x="1650" y="230" as="targetPoint" />
          </mxGeometry>
        </mxCell>
        <mxCell id="aqqptmSZhaTzbbPc9Eve-172" value="UPI" style="edgeLabel;html=1;align=center;verticalAlign=middle;resizable=0;points=[];" vertex="1" connectable="0" parent="aqqptmSZhaTzbbPc9Eve-171">
          <mxGeometry x="0.071" relative="1" as="geometry">
            <mxPoint as="offset" />
          </mxGeometry>
        </mxCell>
        <mxCell id="aqqptmSZhaTzbbPc9Eve-173" value="" style="endArrow=classic;startArrow=classic;html=1;rounded=0;entryX=1;entryY=0.5;entryDx=0;entryDy=0;exitX=0.5;exitY=0;exitDx=0;exitDy=0;" edge="1" parent="1" source="aqqptmSZhaTzbbPc9Eve-174" target="aqqptmSZhaTzbbPc9Eve-156">
          <mxGeometry width="50" height="50" relative="1" as="geometry">
            <mxPoint x="1600" y="280" as="sourcePoint" />
            <mxPoint x="1650" y="230" as="targetPoint" />
            <Array as="points">
              <mxPoint x="2060" y="140" />
            </Array>
          </mxGeometry>
        </mxCell>
        <mxCell id="aqqptmSZhaTzbbPc9Eve-174" value="IB 3" style="rounded=0;whiteSpace=wrap;html=1;" vertex="1" parent="1">
          <mxGeometry x="2040" y="360" width="40" height="120" as="geometry" />
        </mxCell>
        <mxCell id="aqqptmSZhaTzbbPc9Eve-175" value="XG/s 为Allreduce的带宽" style="text;html=1;strokeColor=none;fillColor=none;align=center;verticalAlign=middle;whiteSpace=wrap;rounded=0;" vertex="1" parent="1">
          <mxGeometry x="1160" width="160" height="30" as="geometry" />
        </mxCell>
        <mxCell id="aqqptmSZhaTzbbPc9Eve-176" value="第一步：Scatter Reduce" style="text;html=1;strokeColor=none;fillColor=none;align=center;verticalAlign=middle;whiteSpace=wrap;rounded=0;" vertex="1" parent="1">
          <mxGeometry x="1510" y="50" width="160" height="30" as="geometry" />
        </mxCell>
        <mxCell id="aqqptmSZhaTzbbPc9Eve-177" value="CPU 1" style="rounded=0;whiteSpace=wrap;html=1;" vertex="1" parent="1">
          <mxGeometry x="1320" y="630" width="120" height="40" as="geometry" />
        </mxCell>
        <mxCell id="aqqptmSZhaTzbbPc9Eve-178" value="SWITCH" style="rounded=0;whiteSpace=wrap;html=1;" vertex="1" parent="1">
          <mxGeometry x="1240" y="750" width="280" height="40" as="geometry" />
        </mxCell>
        <mxCell id="aqqptmSZhaTzbbPc9Eve-179" value="Card 0" style="rounded=0;whiteSpace=wrap;html=1;" vertex="1" parent="1">
          <mxGeometry x="1240" y="870" width="40" height="120" as="geometry" />
        </mxCell>
        <mxCell id="aqqptmSZhaTzbbPc9Eve-180" value="Card 1" style="rounded=0;whiteSpace=wrap;html=1;" vertex="1" parent="1">
          <mxGeometry x="1320" y="870" width="40" height="120" as="geometry" />
        </mxCell>
        <mxCell id="aqqptmSZhaTzbbPc9Eve-181" value="Card 2" style="rounded=0;whiteSpace=wrap;html=1;" vertex="1" parent="1">
          <mxGeometry x="1400" y="870" width="40" height="120" as="geometry" />
        </mxCell>
        <mxCell id="aqqptmSZhaTzbbPc9Eve-182" value="Card 3" style="rounded=0;whiteSpace=wrap;html=1;" vertex="1" parent="1">
          <mxGeometry x="1480" y="870" width="40" height="120" as="geometry" />
        </mxCell>
        <mxCell id="aqqptmSZhaTzbbPc9Eve-183" value="X/2" style="shape=flexArrow;endArrow=classic;startArrow=classic;html=1;rounded=0;entryX=0.358;entryY=1.031;entryDx=0;entryDy=0;entryPerimeter=0;exitX=0.5;exitY=0;exitDx=0;exitDy=0;" edge="1" parent="1" source="aqqptmSZhaTzbbPc9Eve-180" target="aqqptmSZhaTzbbPc9Eve-178">
          <mxGeometry width="100" height="100" relative="1" as="geometry">
            <mxPoint x="1570" y="1140" as="sourcePoint" />
            <mxPoint x="1670" y="1040" as="targetPoint" />
          </mxGeometry>
        </mxCell>
        <mxCell id="aqqptmSZhaTzbbPc9Eve-184" value="" style="shape=flexArrow;endArrow=classic;startArrow=classic;html=1;rounded=0;entryX=0.358;entryY=1.031;entryDx=0;entryDy=0;entryPerimeter=0;exitX=0.5;exitY=0;exitDx=0;exitDy=0;" edge="1" parent="1">
          <mxGeometry width="100" height="100" relative="1" as="geometry">
            <mxPoint x="1499.85" y="869" as="sourcePoint" />
            <mxPoint x="1499.85" y="790" as="targetPoint" />
          </mxGeometry>
        </mxCell>
        <mxCell id="aqqptmSZhaTzbbPc9Eve-185" value="X/2" style="edgeLabel;html=1;align=center;verticalAlign=middle;resizable=0;points=[];" vertex="1" connectable="0" parent="aqqptmSZhaTzbbPc9Eve-184">
          <mxGeometry x="-0.0079" y="-1" relative="1" as="geometry">
            <mxPoint as="offset" />
          </mxGeometry>
        </mxCell>
        <mxCell id="aqqptmSZhaTzbbPc9Eve-186" value="X/2" style="shape=flexArrow;endArrow=classic;startArrow=classic;html=1;rounded=0;entryX=0.358;entryY=1.031;entryDx=0;entryDy=0;entryPerimeter=0;exitX=0.5;exitY=0;exitDx=0;exitDy=0;" edge="1" parent="1">
          <mxGeometry width="100" height="100" relative="1" as="geometry">
            <mxPoint x="1419.85" y="869" as="sourcePoint" />
            <mxPoint x="1419.85" y="790" as="targetPoint" />
          </mxGeometry>
        </mxCell>
        <mxCell id="aqqptmSZhaTzbbPc9Eve-187" value="" style="shape=flexArrow;endArrow=classic;startArrow=classic;html=1;rounded=0;entryX=0.358;entryY=1.031;entryDx=0;entryDy=0;entryPerimeter=0;exitX=0.5;exitY=0;exitDx=0;exitDy=0;" edge="1" parent="1">
          <mxGeometry width="100" height="100" relative="1" as="geometry">
            <mxPoint x="1259.85" y="870" as="sourcePoint" />
            <mxPoint x="1259.85" y="791" as="targetPoint" />
          </mxGeometry>
        </mxCell>
        <mxCell id="aqqptmSZhaTzbbPc9Eve-188" value="X/2" style="edgeLabel;html=1;align=center;verticalAlign=middle;resizable=0;points=[];" vertex="1" connectable="0" parent="aqqptmSZhaTzbbPc9Eve-187">
          <mxGeometry x="-0.0142" relative="1" as="geometry">
            <mxPoint as="offset" />
          </mxGeometry>
        </mxCell>
        <mxCell id="aqqptmSZhaTzbbPc9Eve-189" value="" style="shape=flexArrow;endArrow=classic;startArrow=classic;html=1;rounded=0;entryX=0.358;entryY=1.031;entryDx=0;entryDy=0;entryPerimeter=0;exitX=0.5;exitY=0;exitDx=0;exitDy=0;" edge="1" parent="1">
          <mxGeometry width="100" height="100" relative="1" as="geometry">
            <mxPoint x="1379.85" y="750" as="sourcePoint" />
            <mxPoint x="1379.85" y="671" as="targetPoint" />
          </mxGeometry>
        </mxCell>
        <mxCell id="aqqptmSZhaTzbbPc9Eve-249" value="X" style="edgeLabel;html=1;align=center;verticalAlign=middle;resizable=0;points=[];" vertex="1" connectable="0" parent="aqqptmSZhaTzbbPc9Eve-189">
          <mxGeometry x="0.1099" y="-2" relative="1" as="geometry">
            <mxPoint as="offset" />
          </mxGeometry>
        </mxCell>
        <mxCell id="aqqptmSZhaTzbbPc9Eve-190" value="IB 0" style="rounded=0;whiteSpace=wrap;html=1;" vertex="1" parent="1">
          <mxGeometry x="1560" y="870" width="40" height="120" as="geometry" />
        </mxCell>
        <mxCell id="aqqptmSZhaTzbbPc9Eve-191" value="X G/s" style="endArrow=classic;startArrow=classic;html=1;rounded=0;entryX=0.5;entryY=0;entryDx=0;entryDy=0;exitX=1;exitY=0.5;exitDx=0;exitDy=0;" edge="1" parent="1" source="aqqptmSZhaTzbbPc9Eve-178" target="aqqptmSZhaTzbbPc9Eve-190">
          <mxGeometry width="50" height="50" relative="1" as="geometry">
            <mxPoint x="1400" y="860" as="sourcePoint" />
            <mxPoint x="1450" y="810" as="targetPoint" />
            <Array as="points">
              <mxPoint x="1580" y="770" />
            </Array>
          </mxGeometry>
        </mxCell>
        <mxCell id="aqqptmSZhaTzbbPc9Eve-192" value="CPU 1" style="rounded=0;whiteSpace=wrap;html=1;" vertex="1" parent="1">
          <mxGeometry x="1720" y="630" width="120" height="40" as="geometry" />
        </mxCell>
        <mxCell id="aqqptmSZhaTzbbPc9Eve-193" value="SWITCH" style="rounded=0;whiteSpace=wrap;html=1;" vertex="1" parent="1">
          <mxGeometry x="1640" y="750" width="280" height="40" as="geometry" />
        </mxCell>
        <mxCell id="aqqptmSZhaTzbbPc9Eve-194" value="Card 4" style="rounded=0;whiteSpace=wrap;html=1;" vertex="1" parent="1">
          <mxGeometry x="1640" y="870" width="40" height="120" as="geometry" />
        </mxCell>
        <mxCell id="aqqptmSZhaTzbbPc9Eve-195" value="Card 5" style="rounded=0;whiteSpace=wrap;html=1;" vertex="1" parent="1">
          <mxGeometry x="1720" y="870" width="40" height="120" as="geometry" />
        </mxCell>
        <mxCell id="aqqptmSZhaTzbbPc9Eve-196" value="Card 6" style="rounded=0;whiteSpace=wrap;html=1;" vertex="1" parent="1">
          <mxGeometry x="1800" y="870" width="40" height="120" as="geometry" />
        </mxCell>
        <mxCell id="aqqptmSZhaTzbbPc9Eve-197" value="Card 7" style="rounded=0;whiteSpace=wrap;html=1;" vertex="1" parent="1">
          <mxGeometry x="1880" y="870" width="40" height="120" as="geometry" />
        </mxCell>
        <mxCell id="aqqptmSZhaTzbbPc9Eve-198" value="X/2" style="shape=flexArrow;endArrow=classic;startArrow=classic;html=1;rounded=0;entryX=0.358;entryY=1.031;entryDx=0;entryDy=0;entryPerimeter=0;exitX=0.5;exitY=0;exitDx=0;exitDy=0;" edge="1" parent="1" source="aqqptmSZhaTzbbPc9Eve-195" target="aqqptmSZhaTzbbPc9Eve-193">
          <mxGeometry width="100" height="100" relative="1" as="geometry">
            <mxPoint x="1970" y="1140" as="sourcePoint" />
            <mxPoint x="2070" y="1040" as="targetPoint" />
          </mxGeometry>
        </mxCell>
        <mxCell id="aqqptmSZhaTzbbPc9Eve-199" value="X/2" style="shape=flexArrow;endArrow=classic;startArrow=classic;html=1;rounded=0;entryX=0.358;entryY=1.031;entryDx=0;entryDy=0;entryPerimeter=0;exitX=0.5;exitY=0;exitDx=0;exitDy=0;" edge="1" parent="1">
          <mxGeometry x="-0.0127" width="100" height="100" relative="1" as="geometry">
            <mxPoint x="1899.85" y="869" as="sourcePoint" />
            <mxPoint x="1899.85" y="790" as="targetPoint" />
            <mxPoint as="offset" />
          </mxGeometry>
        </mxCell>
        <mxCell id="aqqptmSZhaTzbbPc9Eve-200" value="X/2" style="shape=flexArrow;endArrow=classic;startArrow=classic;html=1;rounded=0;entryX=0.358;entryY=1.031;entryDx=0;entryDy=0;entryPerimeter=0;exitX=0.5;exitY=0;exitDx=0;exitDy=0;" edge="1" parent="1">
          <mxGeometry width="100" height="100" relative="1" as="geometry">
            <mxPoint x="1819.85" y="869" as="sourcePoint" />
            <mxPoint x="1819.85" y="790" as="targetPoint" />
          </mxGeometry>
        </mxCell>
        <mxCell id="aqqptmSZhaTzbbPc9Eve-201" value="X/2" style="shape=flexArrow;endArrow=classic;startArrow=classic;html=1;rounded=0;entryX=0.358;entryY=1.031;entryDx=0;entryDy=0;entryPerimeter=0;exitX=0.5;exitY=0;exitDx=0;exitDy=0;" edge="1" parent="1">
          <mxGeometry width="100" height="100" relative="1" as="geometry">
            <mxPoint x="1659.85" y="870" as="sourcePoint" />
            <mxPoint x="1659.85" y="791" as="targetPoint" />
          </mxGeometry>
        </mxCell>
        <mxCell id="aqqptmSZhaTzbbPc9Eve-202" value="X" style="shape=flexArrow;endArrow=classic;startArrow=classic;html=1;rounded=0;entryX=0.358;entryY=1.031;entryDx=0;entryDy=0;entryPerimeter=0;exitX=0.5;exitY=0;exitDx=0;exitDy=0;" edge="1" parent="1">
          <mxGeometry width="100" height="100" relative="1" as="geometry">
            <mxPoint x="1779.85" y="750" as="sourcePoint" />
            <mxPoint x="1779.85" y="671" as="targetPoint" />
          </mxGeometry>
        </mxCell>
        <mxCell id="aqqptmSZhaTzbbPc9Eve-203" value="IB 2" style="rounded=0;whiteSpace=wrap;html=1;" vertex="1" parent="1">
          <mxGeometry x="1960" y="870" width="40" height="120" as="geometry" />
        </mxCell>
        <mxCell id="aqqptmSZhaTzbbPc9Eve-204" value="XG/s" style="endArrow=classic;startArrow=classic;html=1;rounded=0;entryX=0.5;entryY=0;entryDx=0;entryDy=0;exitX=1;exitY=0.5;exitDx=0;exitDy=0;" edge="1" parent="1" source="aqqptmSZhaTzbbPc9Eve-193" target="aqqptmSZhaTzbbPc9Eve-203">
          <mxGeometry width="50" height="50" relative="1" as="geometry">
            <mxPoint x="1800" y="860" as="sourcePoint" />
            <mxPoint x="1850" y="810" as="targetPoint" />
            <Array as="points">
              <mxPoint x="1980" y="770" />
            </Array>
          </mxGeometry>
        </mxCell>
        <mxCell id="aqqptmSZhaTzbbPc9Eve-205" value="IB 1" style="rounded=0;whiteSpace=wrap;html=1;" vertex="1" parent="1">
          <mxGeometry x="1160" y="870" width="40" height="120" as="geometry" />
        </mxCell>
        <mxCell id="aqqptmSZhaTzbbPc9Eve-206" value="X G/s" style="endArrow=classic;startArrow=classic;html=1;rounded=0;entryX=0.5;entryY=0;entryDx=0;entryDy=0;exitX=0;exitY=0.5;exitDx=0;exitDy=0;" edge="1" parent="1" source="aqqptmSZhaTzbbPc9Eve-177" target="aqqptmSZhaTzbbPc9Eve-205">
          <mxGeometry width="50" height="50" relative="1" as="geometry">
            <mxPoint x="1530" y="780" as="sourcePoint" />
            <mxPoint x="1590" y="880" as="targetPoint" />
            <Array as="points">
              <mxPoint x="1180" y="650" />
            </Array>
          </mxGeometry>
        </mxCell>
        <mxCell id="aqqptmSZhaTzbbPc9Eve-207" value="" style="endArrow=classic;startArrow=classic;html=1;rounded=0;entryX=0;entryY=0.5;entryDx=0;entryDy=0;exitX=1;exitY=0.5;exitDx=0;exitDy=0;" edge="1" parent="1" source="aqqptmSZhaTzbbPc9Eve-177" target="aqqptmSZhaTzbbPc9Eve-192">
          <mxGeometry width="50" height="50" relative="1" as="geometry">
            <mxPoint x="1600" y="790" as="sourcePoint" />
            <mxPoint x="1650" y="740" as="targetPoint" />
          </mxGeometry>
        </mxCell>
        <mxCell id="aqqptmSZhaTzbbPc9Eve-208" value="UPI" style="edgeLabel;html=1;align=center;verticalAlign=middle;resizable=0;points=[];" vertex="1" connectable="0" parent="aqqptmSZhaTzbbPc9Eve-207">
          <mxGeometry x="0.071" relative="1" as="geometry">
            <mxPoint as="offset" />
          </mxGeometry>
        </mxCell>
        <mxCell id="aqqptmSZhaTzbbPc9Eve-209" value="X G/s" style="endArrow=classic;startArrow=classic;html=1;rounded=0;entryX=1;entryY=0.5;entryDx=0;entryDy=0;exitX=0.5;exitY=0;exitDx=0;exitDy=0;" edge="1" parent="1" source="aqqptmSZhaTzbbPc9Eve-210" target="aqqptmSZhaTzbbPc9Eve-192">
          <mxGeometry width="50" height="50" relative="1" as="geometry">
            <mxPoint x="1600" y="790" as="sourcePoint" />
            <mxPoint x="1650" y="740" as="targetPoint" />
            <Array as="points">
              <mxPoint x="2060" y="650" />
            </Array>
          </mxGeometry>
        </mxCell>
        <mxCell id="aqqptmSZhaTzbbPc9Eve-210" value="IB 3" style="rounded=0;whiteSpace=wrap;html=1;" vertex="1" parent="1">
          <mxGeometry x="2040" y="870" width="40" height="120" as="geometry" />
        </mxCell>
        <mxCell id="aqqptmSZhaTzbbPc9Eve-211" value="第一步：Sharp&amp;nbsp;Reduce" style="text;html=1;strokeColor=none;fillColor=none;align=center;verticalAlign=middle;whiteSpace=wrap;rounded=0;" vertex="1" parent="1">
          <mxGeometry x="1510" y="560" width="160" height="30" as="geometry" />
        </mxCell>
        <mxCell id="aqqptmSZhaTzbbPc9Eve-212" value="第三步：Allgather" style="text;html=1;strokeColor=none;fillColor=none;align=center;verticalAlign=middle;whiteSpace=wrap;rounded=0;" vertex="1" parent="1">
          <mxGeometry x="1510" y="1080" width="160" height="30" as="geometry" />
        </mxCell>
        <mxCell id="aqqptmSZhaTzbbPc9Eve-213" value="CPU 1" style="rounded=0;whiteSpace=wrap;html=1;" vertex="1" parent="1">
          <mxGeometry x="1320" y="1120" width="120" height="40" as="geometry" />
        </mxCell>
        <mxCell id="aqqptmSZhaTzbbPc9Eve-214" value="SWITCH" style="rounded=0;whiteSpace=wrap;html=1;" vertex="1" parent="1">
          <mxGeometry x="1240" y="1240" width="280" height="40" as="geometry" />
        </mxCell>
        <mxCell id="aqqptmSZhaTzbbPc9Eve-215" value="Card 0" style="rounded=0;whiteSpace=wrap;html=1;" vertex="1" parent="1">
          <mxGeometry x="1240" y="1360" width="40" height="120" as="geometry" />
        </mxCell>
        <mxCell id="aqqptmSZhaTzbbPc9Eve-216" value="Card 1" style="rounded=0;whiteSpace=wrap;html=1;" vertex="1" parent="1">
          <mxGeometry x="1320" y="1360" width="40" height="120" as="geometry" />
        </mxCell>
        <mxCell id="aqqptmSZhaTzbbPc9Eve-217" value="Card 2" style="rounded=0;whiteSpace=wrap;html=1;" vertex="1" parent="1">
          <mxGeometry x="1400" y="1360" width="40" height="120" as="geometry" />
        </mxCell>
        <mxCell id="aqqptmSZhaTzbbPc9Eve-218" value="Card 3" style="rounded=0;whiteSpace=wrap;html=1;" vertex="1" parent="1">
          <mxGeometry x="1480" y="1360" width="40" height="120" as="geometry" />
        </mxCell>
        <mxCell id="aqqptmSZhaTzbbPc9Eve-219" value="3X/4" style="shape=flexArrow;endArrow=classic;startArrow=classic;html=1;rounded=0;entryX=0.358;entryY=1.031;entryDx=0;entryDy=0;entryPerimeter=0;exitX=0.5;exitY=0;exitDx=0;exitDy=0;" edge="1" parent="1" source="aqqptmSZhaTzbbPc9Eve-216" target="aqqptmSZhaTzbbPc9Eve-214">
          <mxGeometry width="100" height="100" relative="1" as="geometry">
            <mxPoint x="1570" y="1630" as="sourcePoint" />
            <mxPoint x="1670" y="1530" as="targetPoint" />
          </mxGeometry>
        </mxCell>
        <mxCell id="aqqptmSZhaTzbbPc9Eve-220" value="" style="shape=flexArrow;endArrow=classic;startArrow=classic;html=1;rounded=0;entryX=0.358;entryY=1.031;entryDx=0;entryDy=0;entryPerimeter=0;exitX=0.5;exitY=0;exitDx=0;exitDy=0;" edge="1" parent="1">
          <mxGeometry width="100" height="100" relative="1" as="geometry">
            <mxPoint x="1499.85" y="1359" as="sourcePoint" />
            <mxPoint x="1499.85" y="1280" as="targetPoint" />
          </mxGeometry>
        </mxCell>
        <mxCell id="aqqptmSZhaTzbbPc9Eve-221" value="3X/4" style="edgeLabel;html=1;align=center;verticalAlign=middle;resizable=0;points=[];" vertex="1" connectable="0" parent="aqqptmSZhaTzbbPc9Eve-220">
          <mxGeometry x="-0.0079" y="-1" relative="1" as="geometry">
            <mxPoint as="offset" />
          </mxGeometry>
        </mxCell>
        <mxCell id="aqqptmSZhaTzbbPc9Eve-222" value="3X/4" style="shape=flexArrow;endArrow=classic;startArrow=classic;html=1;rounded=0;entryX=0.358;entryY=1.031;entryDx=0;entryDy=0;entryPerimeter=0;exitX=0.5;exitY=0;exitDx=0;exitDy=0;" edge="1" parent="1">
          <mxGeometry width="100" height="100" relative="1" as="geometry">
            <mxPoint x="1419.85" y="1359" as="sourcePoint" />
            <mxPoint x="1419.85" y="1280" as="targetPoint" />
          </mxGeometry>
        </mxCell>
        <mxCell id="aqqptmSZhaTzbbPc9Eve-223" value="" style="shape=flexArrow;endArrow=classic;startArrow=classic;html=1;rounded=0;entryX=0.358;entryY=1.031;entryDx=0;entryDy=0;entryPerimeter=0;exitX=0.5;exitY=0;exitDx=0;exitDy=0;" edge="1" parent="1">
          <mxGeometry width="100" height="100" relative="1" as="geometry">
            <mxPoint x="1259.85" y="1360" as="sourcePoint" />
            <mxPoint x="1259.85" y="1281" as="targetPoint" />
          </mxGeometry>
        </mxCell>
        <mxCell id="aqqptmSZhaTzbbPc9Eve-224" value="3X/4" style="edgeLabel;html=1;align=center;verticalAlign=middle;resizable=0;points=[];" vertex="1" connectable="0" parent="aqqptmSZhaTzbbPc9Eve-223">
          <mxGeometry x="-0.0142" relative="1" as="geometry">
            <mxPoint as="offset" />
          </mxGeometry>
        </mxCell>
        <mxCell id="aqqptmSZhaTzbbPc9Eve-225" value="" style="shape=flexArrow;endArrow=classic;startArrow=classic;html=1;rounded=0;entryX=0.358;entryY=1.031;entryDx=0;entryDy=0;entryPerimeter=0;exitX=0.5;exitY=0;exitDx=0;exitDy=0;" edge="1" parent="1">
          <mxGeometry width="100" height="100" relative="1" as="geometry">
            <mxPoint x="1379.85" y="1240" as="sourcePoint" />
            <mxPoint x="1379.85" y="1161" as="targetPoint" />
          </mxGeometry>
        </mxCell>
        <mxCell id="aqqptmSZhaTzbbPc9Eve-226" value="IB 0" style="rounded=0;whiteSpace=wrap;html=1;" vertex="1" parent="1">
          <mxGeometry x="1560" y="1360" width="40" height="120" as="geometry" />
        </mxCell>
        <mxCell id="aqqptmSZhaTzbbPc9Eve-227" value="0 G/s" style="endArrow=classic;startArrow=classic;html=1;rounded=0;entryX=0.5;entryY=0;entryDx=0;entryDy=0;exitX=1;exitY=0.5;exitDx=0;exitDy=0;" edge="1" parent="1" source="aqqptmSZhaTzbbPc9Eve-214" target="aqqptmSZhaTzbbPc9Eve-226">
          <mxGeometry width="50" height="50" relative="1" as="geometry">
            <mxPoint x="1400" y="1350" as="sourcePoint" />
            <mxPoint x="1450" y="1300" as="targetPoint" />
            <Array as="points">
              <mxPoint x="1580" y="1260" />
            </Array>
          </mxGeometry>
        </mxCell>
        <mxCell id="aqqptmSZhaTzbbPc9Eve-228" value="CPU 1" style="rounded=0;whiteSpace=wrap;html=1;" vertex="1" parent="1">
          <mxGeometry x="1720" y="1120" width="120" height="40" as="geometry" />
        </mxCell>
        <mxCell id="aqqptmSZhaTzbbPc9Eve-229" value="SWITCH" style="rounded=0;whiteSpace=wrap;html=1;" vertex="1" parent="1">
          <mxGeometry x="1640" y="1240" width="280" height="40" as="geometry" />
        </mxCell>
        <mxCell id="aqqptmSZhaTzbbPc9Eve-230" value="Card 4" style="rounded=0;whiteSpace=wrap;html=1;" vertex="1" parent="1">
          <mxGeometry x="1640" y="1360" width="40" height="120" as="geometry" />
        </mxCell>
        <mxCell id="aqqptmSZhaTzbbPc9Eve-231" value="Card 5" style="rounded=0;whiteSpace=wrap;html=1;" vertex="1" parent="1">
          <mxGeometry x="1720" y="1360" width="40" height="120" as="geometry" />
        </mxCell>
        <mxCell id="aqqptmSZhaTzbbPc9Eve-232" value="Card 6" style="rounded=0;whiteSpace=wrap;html=1;" vertex="1" parent="1">
          <mxGeometry x="1800" y="1360" width="40" height="120" as="geometry" />
        </mxCell>
        <mxCell id="aqqptmSZhaTzbbPc9Eve-233" value="Card 7" style="rounded=0;whiteSpace=wrap;html=1;" vertex="1" parent="1">
          <mxGeometry x="1880" y="1360" width="40" height="120" as="geometry" />
        </mxCell>
        <mxCell id="aqqptmSZhaTzbbPc9Eve-234" value="3X/4" style="shape=flexArrow;endArrow=classic;startArrow=classic;html=1;rounded=0;entryX=0.358;entryY=1.031;entryDx=0;entryDy=0;entryPerimeter=0;exitX=0.5;exitY=0;exitDx=0;exitDy=0;" edge="1" parent="1" source="aqqptmSZhaTzbbPc9Eve-231" target="aqqptmSZhaTzbbPc9Eve-229">
          <mxGeometry width="100" height="100" relative="1" as="geometry">
            <mxPoint x="1970" y="1630" as="sourcePoint" />
            <mxPoint x="2070" y="1530" as="targetPoint" />
          </mxGeometry>
        </mxCell>
        <mxCell id="aqqptmSZhaTzbbPc9Eve-235" value="3X/4" style="shape=flexArrow;endArrow=classic;startArrow=classic;html=1;rounded=0;entryX=0.358;entryY=1.031;entryDx=0;entryDy=0;entryPerimeter=0;exitX=0.5;exitY=0;exitDx=0;exitDy=0;" edge="1" parent="1">
          <mxGeometry width="100" height="100" relative="1" as="geometry">
            <mxPoint x="1899.85" y="1359" as="sourcePoint" />
            <mxPoint x="1899.85" y="1280" as="targetPoint" />
          </mxGeometry>
        </mxCell>
        <mxCell id="aqqptmSZhaTzbbPc9Eve-236" value="3X/4" style="shape=flexArrow;endArrow=classic;startArrow=classic;html=1;rounded=0;entryX=0.358;entryY=1.031;entryDx=0;entryDy=0;entryPerimeter=0;exitX=0.5;exitY=0;exitDx=0;exitDy=0;" edge="1" parent="1">
          <mxGeometry width="100" height="100" relative="1" as="geometry">
            <mxPoint x="1819.85" y="1359" as="sourcePoint" />
            <mxPoint x="1819.85" y="1280" as="targetPoint" />
          </mxGeometry>
        </mxCell>
        <mxCell id="aqqptmSZhaTzbbPc9Eve-237" value="3X/4" style="shape=flexArrow;endArrow=classic;startArrow=classic;html=1;rounded=0;entryX=0.358;entryY=1.031;entryDx=0;entryDy=0;entryPerimeter=0;exitX=0.5;exitY=0;exitDx=0;exitDy=0;" edge="1" parent="1">
          <mxGeometry width="100" height="100" relative="1" as="geometry">
            <mxPoint x="1659.85" y="1360" as="sourcePoint" />
            <mxPoint x="1659.85" y="1281" as="targetPoint" />
          </mxGeometry>
        </mxCell>
        <mxCell id="aqqptmSZhaTzbbPc9Eve-238" value="" style="shape=flexArrow;endArrow=classic;startArrow=classic;html=1;rounded=0;entryX=0.358;entryY=1.031;entryDx=0;entryDy=0;entryPerimeter=0;exitX=0.5;exitY=0;exitDx=0;exitDy=0;" edge="1" parent="1">
          <mxGeometry width="100" height="100" relative="1" as="geometry">
            <mxPoint x="1779.85" y="1240" as="sourcePoint" />
            <mxPoint x="1779.85" y="1161" as="targetPoint" />
          </mxGeometry>
        </mxCell>
        <mxCell id="aqqptmSZhaTzbbPc9Eve-239" value="IB 2" style="rounded=0;whiteSpace=wrap;html=1;" vertex="1" parent="1">
          <mxGeometry x="1960" y="1360" width="40" height="120" as="geometry" />
        </mxCell>
        <mxCell id="aqqptmSZhaTzbbPc9Eve-240" value="0G/s" style="endArrow=classic;startArrow=classic;html=1;rounded=0;entryX=0.5;entryY=0;entryDx=0;entryDy=0;exitX=1;exitY=0.5;exitDx=0;exitDy=0;" edge="1" parent="1" source="aqqptmSZhaTzbbPc9Eve-229" target="aqqptmSZhaTzbbPc9Eve-239">
          <mxGeometry width="50" height="50" relative="1" as="geometry">
            <mxPoint x="1800" y="1350" as="sourcePoint" />
            <mxPoint x="1850" y="1300" as="targetPoint" />
            <Array as="points">
              <mxPoint x="1980" y="1260" />
            </Array>
          </mxGeometry>
        </mxCell>
        <mxCell id="aqqptmSZhaTzbbPc9Eve-241" value="IB 1" style="rounded=0;whiteSpace=wrap;html=1;" vertex="1" parent="1">
          <mxGeometry x="1160" y="1360" width="40" height="120" as="geometry" />
        </mxCell>
        <mxCell id="aqqptmSZhaTzbbPc9Eve-242" value="" style="endArrow=classic;startArrow=classic;html=1;rounded=0;entryX=0.5;entryY=0;entryDx=0;entryDy=0;exitX=0;exitY=0.5;exitDx=0;exitDy=0;" edge="1" parent="1" source="aqqptmSZhaTzbbPc9Eve-213" target="aqqptmSZhaTzbbPc9Eve-241">
          <mxGeometry width="50" height="50" relative="1" as="geometry">
            <mxPoint x="1530" y="1270" as="sourcePoint" />
            <mxPoint x="1590" y="1370" as="targetPoint" />
            <Array as="points">
              <mxPoint x="1180" y="1140" />
            </Array>
          </mxGeometry>
        </mxCell>
        <mxCell id="aqqptmSZhaTzbbPc9Eve-243" value="" style="endArrow=classic;startArrow=classic;html=1;rounded=0;entryX=0;entryY=0.5;entryDx=0;entryDy=0;exitX=1;exitY=0.5;exitDx=0;exitDy=0;" edge="1" parent="1" source="aqqptmSZhaTzbbPc9Eve-213" target="aqqptmSZhaTzbbPc9Eve-228">
          <mxGeometry width="50" height="50" relative="1" as="geometry">
            <mxPoint x="1600" y="1280" as="sourcePoint" />
            <mxPoint x="1650" y="1230" as="targetPoint" />
          </mxGeometry>
        </mxCell>
        <mxCell id="aqqptmSZhaTzbbPc9Eve-244" value="UPI" style="edgeLabel;html=1;align=center;verticalAlign=middle;resizable=0;points=[];" vertex="1" connectable="0" parent="aqqptmSZhaTzbbPc9Eve-243">
          <mxGeometry x="0.071" relative="1" as="geometry">
            <mxPoint as="offset" />
          </mxGeometry>
        </mxCell>
        <mxCell id="aqqptmSZhaTzbbPc9Eve-245" value="" style="endArrow=classic;startArrow=classic;html=1;rounded=0;entryX=1;entryY=0.5;entryDx=0;entryDy=0;exitX=0.5;exitY=0;exitDx=0;exitDy=0;" edge="1" parent="1" source="aqqptmSZhaTzbbPc9Eve-246" target="aqqptmSZhaTzbbPc9Eve-228">
          <mxGeometry width="50" height="50" relative="1" as="geometry">
            <mxPoint x="1600" y="1280" as="sourcePoint" />
            <mxPoint x="1650" y="1230" as="targetPoint" />
            <Array as="points">
              <mxPoint x="2060" y="1140" />
            </Array>
          </mxGeometry>
        </mxCell>
        <mxCell id="aqqptmSZhaTzbbPc9Eve-246" value="IB 3" style="rounded=0;whiteSpace=wrap;html=1;" vertex="1" parent="1">
          <mxGeometry x="2040" y="1360" width="40" height="120" as="geometry" />
        </mxCell>
        <mxCell id="aqqptmSZhaTzbbPc9Eve-252" value="数据流量累计" style="text;html=1;strokeColor=none;fillColor=none;align=center;verticalAlign=middle;whiteSpace=wrap;rounded=0;" vertex="1" parent="1">
          <mxGeometry x="390" y="1600" width="160" height="30" as="geometry" />
        </mxCell>
        <mxCell id="aqqptmSZhaTzbbPc9Eve-253" value="CPU 1" style="rounded=0;whiteSpace=wrap;html=1;" vertex="1" parent="1">
          <mxGeometry x="200" y="1640" width="120" height="40" as="geometry" />
        </mxCell>
        <mxCell id="aqqptmSZhaTzbbPc9Eve-254" value="SWITCH" style="rounded=0;whiteSpace=wrap;html=1;" vertex="1" parent="1">
          <mxGeometry x="120" y="1760" width="280" height="40" as="geometry" />
        </mxCell>
        <mxCell id="aqqptmSZhaTzbbPc9Eve-255" value="Card 0" style="rounded=0;whiteSpace=wrap;html=1;" vertex="1" parent="1">
          <mxGeometry x="120" y="1880" width="40" height="120" as="geometry" />
        </mxCell>
        <mxCell id="aqqptmSZhaTzbbPc9Eve-256" value="Card 1" style="rounded=0;whiteSpace=wrap;html=1;" vertex="1" parent="1">
          <mxGeometry x="200" y="1880" width="40" height="120" as="geometry" />
        </mxCell>
        <mxCell id="aqqptmSZhaTzbbPc9Eve-257" value="Card 2" style="rounded=0;whiteSpace=wrap;html=1;" vertex="1" parent="1">
          <mxGeometry x="280" y="1880" width="40" height="120" as="geometry" />
        </mxCell>
        <mxCell id="aqqptmSZhaTzbbPc9Eve-258" value="Card 3" style="rounded=0;whiteSpace=wrap;html=1;" vertex="1" parent="1">
          <mxGeometry x="360" y="1880" width="40" height="120" as="geometry" />
        </mxCell>
        <mxCell id="aqqptmSZhaTzbbPc9Eve-259" value="7X/4" style="shape=flexArrow;endArrow=classic;startArrow=classic;html=1;rounded=0;entryX=0.358;entryY=1.031;entryDx=0;entryDy=0;entryPerimeter=0;exitX=0.5;exitY=0;exitDx=0;exitDy=0;" edge="1" parent="1" source="aqqptmSZhaTzbbPc9Eve-256" target="aqqptmSZhaTzbbPc9Eve-254">
          <mxGeometry width="100" height="100" relative="1" as="geometry">
            <mxPoint x="450" y="2150" as="sourcePoint" />
            <mxPoint x="550" y="2050" as="targetPoint" />
          </mxGeometry>
        </mxCell>
        <mxCell id="aqqptmSZhaTzbbPc9Eve-260" value="" style="shape=flexArrow;endArrow=classic;startArrow=classic;html=1;rounded=0;entryX=0.358;entryY=1.031;entryDx=0;entryDy=0;entryPerimeter=0;exitX=0.5;exitY=0;exitDx=0;exitDy=0;" edge="1" parent="1">
          <mxGeometry width="100" height="100" relative="1" as="geometry">
            <mxPoint x="379.85" y="1879" as="sourcePoint" />
            <mxPoint x="379.85" y="1800" as="targetPoint" />
          </mxGeometry>
        </mxCell>
        <mxCell id="aqqptmSZhaTzbbPc9Eve-261" value="7X/4" style="edgeLabel;html=1;align=center;verticalAlign=middle;resizable=0;points=[];" vertex="1" connectable="0" parent="aqqptmSZhaTzbbPc9Eve-260">
          <mxGeometry x="-0.0079" y="-1" relative="1" as="geometry">
            <mxPoint as="offset" />
          </mxGeometry>
        </mxCell>
        <mxCell id="aqqptmSZhaTzbbPc9Eve-262" value="7X/4" style="shape=flexArrow;endArrow=classic;startArrow=classic;html=1;rounded=0;entryX=0.358;entryY=1.031;entryDx=0;entryDy=0;entryPerimeter=0;exitX=0.5;exitY=0;exitDx=0;exitDy=0;" edge="1" parent="1">
          <mxGeometry width="100" height="100" relative="1" as="geometry">
            <mxPoint x="299.85" y="1879" as="sourcePoint" />
            <mxPoint x="299.85" y="1800" as="targetPoint" />
          </mxGeometry>
        </mxCell>
        <mxCell id="aqqptmSZhaTzbbPc9Eve-263" value="" style="shape=flexArrow;endArrow=classic;startArrow=classic;html=1;rounded=0;entryX=0.358;entryY=1.031;entryDx=0;entryDy=0;entryPerimeter=0;exitX=0.5;exitY=0;exitDx=0;exitDy=0;" edge="1" parent="1">
          <mxGeometry width="100" height="100" relative="1" as="geometry">
            <mxPoint x="139.85000000000002" y="1880" as="sourcePoint" />
            <mxPoint x="139.85000000000002" y="1801" as="targetPoint" />
          </mxGeometry>
        </mxCell>
        <mxCell id="aqqptmSZhaTzbbPc9Eve-264" value="7X/4" style="edgeLabel;html=1;align=center;verticalAlign=middle;resizable=0;points=[];" vertex="1" connectable="0" parent="aqqptmSZhaTzbbPc9Eve-263">
          <mxGeometry x="-0.0142" relative="1" as="geometry">
            <mxPoint as="offset" />
          </mxGeometry>
        </mxCell>
        <mxCell id="aqqptmSZhaTzbbPc9Eve-265" value="0 G/s" style="shape=flexArrow;endArrow=classic;startArrow=classic;html=1;rounded=0;entryX=0.358;entryY=1.031;entryDx=0;entryDy=0;entryPerimeter=0;exitX=0.5;exitY=0;exitDx=0;exitDy=0;" edge="1" parent="1">
          <mxGeometry width="100" height="100" relative="1" as="geometry">
            <mxPoint x="259.85" y="1760" as="sourcePoint" />
            <mxPoint x="259.85" y="1681" as="targetPoint" />
          </mxGeometry>
        </mxCell>
        <mxCell id="aqqptmSZhaTzbbPc9Eve-266" value="IB 0" style="rounded=0;whiteSpace=wrap;html=1;" vertex="1" parent="1">
          <mxGeometry x="440" y="1880" width="40" height="120" as="geometry" />
        </mxCell>
        <mxCell id="aqqptmSZhaTzbbPc9Eve-267" value="X G/s" style="endArrow=classic;startArrow=classic;html=1;rounded=0;entryX=0.5;entryY=0;entryDx=0;entryDy=0;exitX=1;exitY=0.5;exitDx=0;exitDy=0;" edge="1" parent="1" source="aqqptmSZhaTzbbPc9Eve-254" target="aqqptmSZhaTzbbPc9Eve-266">
          <mxGeometry width="50" height="50" relative="1" as="geometry">
            <mxPoint x="280" y="1870" as="sourcePoint" />
            <mxPoint x="330" y="1820" as="targetPoint" />
            <Array as="points">
              <mxPoint x="460" y="1780" />
            </Array>
          </mxGeometry>
        </mxCell>
        <mxCell id="aqqptmSZhaTzbbPc9Eve-268" value="CPU 1" style="rounded=0;whiteSpace=wrap;html=1;" vertex="1" parent="1">
          <mxGeometry x="600" y="1640" width="120" height="40" as="geometry" />
        </mxCell>
        <mxCell id="aqqptmSZhaTzbbPc9Eve-269" value="SWITCH" style="rounded=0;whiteSpace=wrap;html=1;" vertex="1" parent="1">
          <mxGeometry x="520" y="1760" width="280" height="40" as="geometry" />
        </mxCell>
        <mxCell id="aqqptmSZhaTzbbPc9Eve-270" value="Card 4" style="rounded=0;whiteSpace=wrap;html=1;" vertex="1" parent="1">
          <mxGeometry x="520" y="1880" width="40" height="120" as="geometry" />
        </mxCell>
        <mxCell id="aqqptmSZhaTzbbPc9Eve-271" value="Card 5" style="rounded=0;whiteSpace=wrap;html=1;" vertex="1" parent="1">
          <mxGeometry x="600" y="1880" width="40" height="120" as="geometry" />
        </mxCell>
        <mxCell id="aqqptmSZhaTzbbPc9Eve-272" value="Card 6" style="rounded=0;whiteSpace=wrap;html=1;" vertex="1" parent="1">
          <mxGeometry x="680" y="1880" width="40" height="120" as="geometry" />
        </mxCell>
        <mxCell id="aqqptmSZhaTzbbPc9Eve-273" value="Card 7" style="rounded=0;whiteSpace=wrap;html=1;" vertex="1" parent="1">
          <mxGeometry x="760" y="1880" width="40" height="120" as="geometry" />
        </mxCell>
        <mxCell id="aqqptmSZhaTzbbPc9Eve-274" value="7X/4" style="shape=flexArrow;endArrow=classic;startArrow=classic;html=1;rounded=0;entryX=0.358;entryY=1.031;entryDx=0;entryDy=0;entryPerimeter=0;exitX=0.5;exitY=0;exitDx=0;exitDy=0;" edge="1" parent="1" source="aqqptmSZhaTzbbPc9Eve-271" target="aqqptmSZhaTzbbPc9Eve-269">
          <mxGeometry width="100" height="100" relative="1" as="geometry">
            <mxPoint x="850" y="2150" as="sourcePoint" />
            <mxPoint x="950" y="2050" as="targetPoint" />
          </mxGeometry>
        </mxCell>
        <mxCell id="aqqptmSZhaTzbbPc9Eve-275" value="7X/4" style="shape=flexArrow;endArrow=classic;startArrow=classic;html=1;rounded=0;entryX=0.358;entryY=1.031;entryDx=0;entryDy=0;entryPerimeter=0;exitX=0.5;exitY=0;exitDx=0;exitDy=0;" edge="1" parent="1">
          <mxGeometry x="-0.0014" width="100" height="100" relative="1" as="geometry">
            <mxPoint x="779.85" y="1879" as="sourcePoint" />
            <mxPoint x="779.85" y="1800" as="targetPoint" />
            <mxPoint as="offset" />
          </mxGeometry>
        </mxCell>
        <mxCell id="aqqptmSZhaTzbbPc9Eve-276" value="7X/4" style="shape=flexArrow;endArrow=classic;startArrow=classic;html=1;rounded=0;entryX=0.358;entryY=1.031;entryDx=0;entryDy=0;entryPerimeter=0;exitX=0.5;exitY=0;exitDx=0;exitDy=0;" edge="1" parent="1">
          <mxGeometry width="100" height="100" relative="1" as="geometry">
            <mxPoint x="699.85" y="1879" as="sourcePoint" />
            <mxPoint x="699.85" y="1800" as="targetPoint" />
          </mxGeometry>
        </mxCell>
        <mxCell id="aqqptmSZhaTzbbPc9Eve-277" value="7X/4" style="shape=flexArrow;endArrow=classic;startArrow=classic;html=1;rounded=0;entryX=0.358;entryY=1.031;entryDx=0;entryDy=0;entryPerimeter=0;exitX=0.5;exitY=0;exitDx=0;exitDy=0;" edge="1" parent="1">
          <mxGeometry width="100" height="100" relative="1" as="geometry">
            <mxPoint x="539.85" y="1880" as="sourcePoint" />
            <mxPoint x="539.85" y="1801" as="targetPoint" />
          </mxGeometry>
        </mxCell>
        <mxCell id="aqqptmSZhaTzbbPc9Eve-278" value="" style="shape=flexArrow;endArrow=classic;startArrow=classic;html=1;rounded=0;entryX=0.358;entryY=1.031;entryDx=0;entryDy=0;entryPerimeter=0;exitX=0.5;exitY=0;exitDx=0;exitDy=0;" edge="1" parent="1">
          <mxGeometry width="100" height="100" relative="1" as="geometry">
            <mxPoint x="659.85" y="1760" as="sourcePoint" />
            <mxPoint x="659.85" y="1681" as="targetPoint" />
          </mxGeometry>
        </mxCell>
        <mxCell id="aqqptmSZhaTzbbPc9Eve-323" value="0 G/s" style="edgeLabel;html=1;align=center;verticalAlign=middle;resizable=0;points=[];" vertex="1" connectable="0" parent="aqqptmSZhaTzbbPc9Eve-278">
          <mxGeometry x="0.015" y="-1" relative="1" as="geometry">
            <mxPoint as="offset" />
          </mxGeometry>
        </mxCell>
        <mxCell id="aqqptmSZhaTzbbPc9Eve-279" value="IB 2" style="rounded=0;whiteSpace=wrap;html=1;" vertex="1" parent="1">
          <mxGeometry x="840" y="1880" width="40" height="120" as="geometry" />
        </mxCell>
        <mxCell id="aqqptmSZhaTzbbPc9Eve-280" value="X G/s" style="endArrow=classic;startArrow=classic;html=1;rounded=0;entryX=0.5;entryY=0;entryDx=0;entryDy=0;exitX=1;exitY=0.5;exitDx=0;exitDy=0;" edge="1" parent="1" source="aqqptmSZhaTzbbPc9Eve-269" target="aqqptmSZhaTzbbPc9Eve-279">
          <mxGeometry width="50" height="50" relative="1" as="geometry">
            <mxPoint x="680" y="1870" as="sourcePoint" />
            <mxPoint x="730" y="1820" as="targetPoint" />
            <Array as="points">
              <mxPoint x="860" y="1780" />
            </Array>
          </mxGeometry>
        </mxCell>
        <mxCell id="aqqptmSZhaTzbbPc9Eve-281" value="IB 1" style="rounded=0;whiteSpace=wrap;html=1;" vertex="1" parent="1">
          <mxGeometry x="40" y="1880" width="40" height="120" as="geometry" />
        </mxCell>
        <mxCell id="aqqptmSZhaTzbbPc9Eve-282" value="" style="endArrow=classic;startArrow=classic;html=1;rounded=0;entryX=0.5;entryY=0;entryDx=0;entryDy=0;exitX=0;exitY=0.5;exitDx=0;exitDy=0;" edge="1" parent="1" source="aqqptmSZhaTzbbPc9Eve-253" target="aqqptmSZhaTzbbPc9Eve-281">
          <mxGeometry width="50" height="50" relative="1" as="geometry">
            <mxPoint x="410" y="1790" as="sourcePoint" />
            <mxPoint x="470" y="1890" as="targetPoint" />
            <Array as="points">
              <mxPoint x="60" y="1660" />
            </Array>
          </mxGeometry>
        </mxCell>
        <mxCell id="aqqptmSZhaTzbbPc9Eve-283" value="" style="endArrow=classic;startArrow=classic;html=1;rounded=0;entryX=0;entryY=0.5;entryDx=0;entryDy=0;exitX=1;exitY=0.5;exitDx=0;exitDy=0;" edge="1" parent="1" source="aqqptmSZhaTzbbPc9Eve-253" target="aqqptmSZhaTzbbPc9Eve-268">
          <mxGeometry width="50" height="50" relative="1" as="geometry">
            <mxPoint x="480" y="1800" as="sourcePoint" />
            <mxPoint x="530" y="1750" as="targetPoint" />
          </mxGeometry>
        </mxCell>
        <mxCell id="aqqptmSZhaTzbbPc9Eve-284" value="UPI" style="edgeLabel;html=1;align=center;verticalAlign=middle;resizable=0;points=[];" vertex="1" connectable="0" parent="aqqptmSZhaTzbbPc9Eve-283">
          <mxGeometry x="0.071" relative="1" as="geometry">
            <mxPoint as="offset" />
          </mxGeometry>
        </mxCell>
        <mxCell id="aqqptmSZhaTzbbPc9Eve-285" value="" style="endArrow=classic;startArrow=classic;html=1;rounded=0;entryX=1;entryY=0.5;entryDx=0;entryDy=0;exitX=0.5;exitY=0;exitDx=0;exitDy=0;" edge="1" parent="1" source="aqqptmSZhaTzbbPc9Eve-286" target="aqqptmSZhaTzbbPc9Eve-268">
          <mxGeometry width="50" height="50" relative="1" as="geometry">
            <mxPoint x="480" y="1800" as="sourcePoint" />
            <mxPoint x="530" y="1750" as="targetPoint" />
            <Array as="points">
              <mxPoint x="940" y="1660" />
            </Array>
          </mxGeometry>
        </mxCell>
        <mxCell id="aqqptmSZhaTzbbPc9Eve-286" value="IB 3" style="rounded=0;whiteSpace=wrap;html=1;" vertex="1" parent="1">
          <mxGeometry x="920" y="1880" width="40" height="120" as="geometry" />
        </mxCell>
        <mxCell id="aqqptmSZhaTzbbPc9Eve-287" value="数据流量累计" style="text;html=1;strokeColor=none;fillColor=none;align=center;verticalAlign=middle;whiteSpace=wrap;rounded=0;" vertex="1" parent="1">
          <mxGeometry x="1510" y="1600" width="160" height="30" as="geometry" />
        </mxCell>
        <mxCell id="aqqptmSZhaTzbbPc9Eve-288" value="CPU 1" style="rounded=0;whiteSpace=wrap;html=1;" vertex="1" parent="1">
          <mxGeometry x="1320" y="1640" width="120" height="40" as="geometry" />
        </mxCell>
        <mxCell id="aqqptmSZhaTzbbPc9Eve-289" value="SWITCH" style="rounded=0;whiteSpace=wrap;html=1;" vertex="1" parent="1">
          <mxGeometry x="1240" y="1760" width="280" height="40" as="geometry" />
        </mxCell>
        <mxCell id="aqqptmSZhaTzbbPc9Eve-290" value="Card 0" style="rounded=0;whiteSpace=wrap;html=1;" vertex="1" parent="1">
          <mxGeometry x="1240" y="1880" width="40" height="120" as="geometry" />
        </mxCell>
        <mxCell id="aqqptmSZhaTzbbPc9Eve-291" value="Card 1" style="rounded=0;whiteSpace=wrap;html=1;" vertex="1" parent="1">
          <mxGeometry x="1320" y="1880" width="40" height="120" as="geometry" />
        </mxCell>
        <mxCell id="aqqptmSZhaTzbbPc9Eve-292" value="Card 2" style="rounded=0;whiteSpace=wrap;html=1;" vertex="1" parent="1">
          <mxGeometry x="1400" y="1880" width="40" height="120" as="geometry" />
        </mxCell>
        <mxCell id="aqqptmSZhaTzbbPc9Eve-293" value="Card 3" style="rounded=0;whiteSpace=wrap;html=1;" vertex="1" parent="1">
          <mxGeometry x="1480" y="1880" width="40" height="120" as="geometry" />
        </mxCell>
        <mxCell id="aqqptmSZhaTzbbPc9Eve-294" value="3X/2" style="shape=flexArrow;endArrow=classic;startArrow=classic;html=1;rounded=0;entryX=0.358;entryY=1.031;entryDx=0;entryDy=0;entryPerimeter=0;exitX=0.5;exitY=0;exitDx=0;exitDy=0;" edge="1" parent="1" source="aqqptmSZhaTzbbPc9Eve-291" target="aqqptmSZhaTzbbPc9Eve-289">
          <mxGeometry width="100" height="100" relative="1" as="geometry">
            <mxPoint x="1570" y="2150" as="sourcePoint" />
            <mxPoint x="1670" y="2050" as="targetPoint" />
          </mxGeometry>
        </mxCell>
        <mxCell id="aqqptmSZhaTzbbPc9Eve-295" value="" style="shape=flexArrow;endArrow=classic;startArrow=classic;html=1;rounded=0;entryX=0.358;entryY=1.031;entryDx=0;entryDy=0;entryPerimeter=0;exitX=0.5;exitY=0;exitDx=0;exitDy=0;" edge="1" parent="1">
          <mxGeometry width="100" height="100" relative="1" as="geometry">
            <mxPoint x="1499.85" y="1879" as="sourcePoint" />
            <mxPoint x="1499.85" y="1800" as="targetPoint" />
          </mxGeometry>
        </mxCell>
        <mxCell id="aqqptmSZhaTzbbPc9Eve-296" value="3X/2" style="edgeLabel;html=1;align=center;verticalAlign=middle;resizable=0;points=[];" vertex="1" connectable="0" parent="aqqptmSZhaTzbbPc9Eve-295">
          <mxGeometry x="-0.0079" y="-1" relative="1" as="geometry">
            <mxPoint as="offset" />
          </mxGeometry>
        </mxCell>
        <mxCell id="aqqptmSZhaTzbbPc9Eve-297" value="3X/2" style="shape=flexArrow;endArrow=classic;startArrow=classic;html=1;rounded=0;entryX=0.358;entryY=1.031;entryDx=0;entryDy=0;entryPerimeter=0;exitX=0.5;exitY=0;exitDx=0;exitDy=0;" edge="1" parent="1">
          <mxGeometry x="-0.0027" width="100" height="100" relative="1" as="geometry">
            <mxPoint x="1419.85" y="1879" as="sourcePoint" />
            <mxPoint x="1419.85" y="1800" as="targetPoint" />
            <mxPoint as="offset" />
          </mxGeometry>
        </mxCell>
        <mxCell id="aqqptmSZhaTzbbPc9Eve-298" value="" style="shape=flexArrow;endArrow=classic;startArrow=classic;html=1;rounded=0;entryX=0.358;entryY=1.031;entryDx=0;entryDy=0;entryPerimeter=0;exitX=0.5;exitY=0;exitDx=0;exitDy=0;" edge="1" parent="1">
          <mxGeometry width="100" height="100" relative="1" as="geometry">
            <mxPoint x="1259.85" y="1880" as="sourcePoint" />
            <mxPoint x="1259.85" y="1801" as="targetPoint" />
          </mxGeometry>
        </mxCell>
        <mxCell id="aqqptmSZhaTzbbPc9Eve-299" value="3X/2" style="edgeLabel;html=1;align=center;verticalAlign=middle;resizable=0;points=[];" vertex="1" connectable="0" parent="aqqptmSZhaTzbbPc9Eve-298">
          <mxGeometry x="-0.0142" relative="1" as="geometry">
            <mxPoint as="offset" />
          </mxGeometry>
        </mxCell>
        <mxCell id="aqqptmSZhaTzbbPc9Eve-300" value="X&amp;nbsp;G/s" style="shape=flexArrow;endArrow=classic;startArrow=classic;html=1;rounded=0;entryX=0.358;entryY=1.031;entryDx=0;entryDy=0;entryPerimeter=0;exitX=0.5;exitY=0;exitDx=0;exitDy=0;" edge="1" parent="1">
          <mxGeometry width="100" height="100" relative="1" as="geometry">
            <mxPoint x="1379.85" y="1760" as="sourcePoint" />
            <mxPoint x="1379.85" y="1681" as="targetPoint" />
          </mxGeometry>
        </mxCell>
        <mxCell id="aqqptmSZhaTzbbPc9Eve-301" value="IB 0" style="rounded=0;whiteSpace=wrap;html=1;" vertex="1" parent="1">
          <mxGeometry x="1560" y="1880" width="40" height="120" as="geometry" />
        </mxCell>
        <mxCell id="aqqptmSZhaTzbbPc9Eve-302" value="X&amp;nbsp;G/s" style="endArrow=classic;startArrow=classic;html=1;rounded=0;entryX=0.5;entryY=0;entryDx=0;entryDy=0;exitX=1;exitY=0.5;exitDx=0;exitDy=0;" edge="1" parent="1" source="aqqptmSZhaTzbbPc9Eve-289" target="aqqptmSZhaTzbbPc9Eve-301">
          <mxGeometry width="50" height="50" relative="1" as="geometry">
            <mxPoint x="1400" y="1870" as="sourcePoint" />
            <mxPoint x="1450" y="1820" as="targetPoint" />
            <Array as="points">
              <mxPoint x="1580" y="1780" />
            </Array>
          </mxGeometry>
        </mxCell>
        <mxCell id="aqqptmSZhaTzbbPc9Eve-303" value="CPU 1" style="rounded=0;whiteSpace=wrap;html=1;" vertex="1" parent="1">
          <mxGeometry x="1720" y="1640" width="120" height="40" as="geometry" />
        </mxCell>
        <mxCell id="aqqptmSZhaTzbbPc9Eve-304" value="SWITCH" style="rounded=0;whiteSpace=wrap;html=1;" vertex="1" parent="1">
          <mxGeometry x="1640" y="1760" width="280" height="40" as="geometry" />
        </mxCell>
        <mxCell id="aqqptmSZhaTzbbPc9Eve-305" value="Card 4" style="rounded=0;whiteSpace=wrap;html=1;" vertex="1" parent="1">
          <mxGeometry x="1640" y="1880" width="40" height="120" as="geometry" />
        </mxCell>
        <mxCell id="aqqptmSZhaTzbbPc9Eve-306" value="Card 5" style="rounded=0;whiteSpace=wrap;html=1;" vertex="1" parent="1">
          <mxGeometry x="1720" y="1880" width="40" height="120" as="geometry" />
        </mxCell>
        <mxCell id="aqqptmSZhaTzbbPc9Eve-307" value="Card 6" style="rounded=0;whiteSpace=wrap;html=1;" vertex="1" parent="1">
          <mxGeometry x="1800" y="1880" width="40" height="120" as="geometry" />
        </mxCell>
        <mxCell id="aqqptmSZhaTzbbPc9Eve-308" value="Card 7" style="rounded=0;whiteSpace=wrap;html=1;" vertex="1" parent="1">
          <mxGeometry x="1880" y="1880" width="40" height="120" as="geometry" />
        </mxCell>
        <mxCell id="aqqptmSZhaTzbbPc9Eve-309" value="3X/2" style="shape=flexArrow;endArrow=classic;startArrow=classic;html=1;rounded=0;entryX=0.358;entryY=1.031;entryDx=0;entryDy=0;entryPerimeter=0;exitX=0.5;exitY=0;exitDx=0;exitDy=0;" edge="1" parent="1" source="aqqptmSZhaTzbbPc9Eve-306" target="aqqptmSZhaTzbbPc9Eve-304">
          <mxGeometry width="100" height="100" relative="1" as="geometry">
            <mxPoint x="1970" y="2150" as="sourcePoint" />
            <mxPoint x="2070" y="2050" as="targetPoint" />
          </mxGeometry>
        </mxCell>
        <mxCell id="aqqptmSZhaTzbbPc9Eve-310" value="3X/2" style="shape=flexArrow;endArrow=classic;startArrow=classic;html=1;rounded=0;entryX=0.358;entryY=1.031;entryDx=0;entryDy=0;entryPerimeter=0;exitX=0.5;exitY=0;exitDx=0;exitDy=0;" edge="1" parent="1">
          <mxGeometry width="100" height="100" relative="1" as="geometry">
            <mxPoint x="1899.85" y="1879" as="sourcePoint" />
            <mxPoint x="1899.85" y="1800" as="targetPoint" />
          </mxGeometry>
        </mxCell>
        <mxCell id="aqqptmSZhaTzbbPc9Eve-311" value="3X/2" style="shape=flexArrow;endArrow=classic;startArrow=classic;html=1;rounded=0;entryX=0.358;entryY=1.031;entryDx=0;entryDy=0;entryPerimeter=0;exitX=0.5;exitY=0;exitDx=0;exitDy=0;" edge="1" parent="1">
          <mxGeometry width="100" height="100" relative="1" as="geometry">
            <mxPoint x="1819.85" y="1879" as="sourcePoint" />
            <mxPoint x="1819.85" y="1800" as="targetPoint" />
          </mxGeometry>
        </mxCell>
        <mxCell id="aqqptmSZhaTzbbPc9Eve-312" value="3X/2" style="shape=flexArrow;endArrow=classic;startArrow=classic;html=1;rounded=0;entryX=0.358;entryY=1.031;entryDx=0;entryDy=0;entryPerimeter=0;exitX=0.5;exitY=0;exitDx=0;exitDy=0;" edge="1" parent="1">
          <mxGeometry x="0.0127" width="100" height="100" relative="1" as="geometry">
            <mxPoint x="1659.85" y="1880" as="sourcePoint" />
            <mxPoint x="1659.85" y="1801" as="targetPoint" />
            <mxPoint as="offset" />
          </mxGeometry>
        </mxCell>
        <mxCell id="aqqptmSZhaTzbbPc9Eve-313" value="X&amp;nbsp;G/s" style="shape=flexArrow;endArrow=classic;startArrow=classic;html=1;rounded=0;entryX=0.358;entryY=1.031;entryDx=0;entryDy=0;entryPerimeter=0;exitX=0.5;exitY=0;exitDx=0;exitDy=0;" edge="1" parent="1">
          <mxGeometry width="100" height="100" relative="1" as="geometry">
            <mxPoint x="1779.85" y="1760" as="sourcePoint" />
            <mxPoint x="1779.85" y="1681" as="targetPoint" />
          </mxGeometry>
        </mxCell>
        <mxCell id="aqqptmSZhaTzbbPc9Eve-314" value="IB 2" style="rounded=0;whiteSpace=wrap;html=1;" vertex="1" parent="1">
          <mxGeometry x="1960" y="1880" width="40" height="120" as="geometry" />
        </mxCell>
        <mxCell id="aqqptmSZhaTzbbPc9Eve-315" value="X&amp;nbsp;G/s" style="endArrow=classic;startArrow=classic;html=1;rounded=0;entryX=0.5;entryY=0;entryDx=0;entryDy=0;exitX=1;exitY=0.5;exitDx=0;exitDy=0;" edge="1" parent="1" source="aqqptmSZhaTzbbPc9Eve-304" target="aqqptmSZhaTzbbPc9Eve-314">
          <mxGeometry width="50" height="50" relative="1" as="geometry">
            <mxPoint x="1800" y="1870" as="sourcePoint" />
            <mxPoint x="1850" y="1820" as="targetPoint" />
            <Array as="points">
              <mxPoint x="1980" y="1780" />
            </Array>
          </mxGeometry>
        </mxCell>
        <mxCell id="aqqptmSZhaTzbbPc9Eve-316" value="IB 1" style="rounded=0;whiteSpace=wrap;html=1;" vertex="1" parent="1">
          <mxGeometry x="1160" y="1880" width="40" height="120" as="geometry" />
        </mxCell>
        <mxCell id="aqqptmSZhaTzbbPc9Eve-317" value="X&amp;nbsp;G/s" style="endArrow=classic;startArrow=classic;html=1;rounded=0;entryX=0.5;entryY=0;entryDx=0;entryDy=0;exitX=0;exitY=0.5;exitDx=0;exitDy=0;" edge="1" parent="1" source="aqqptmSZhaTzbbPc9Eve-288" target="aqqptmSZhaTzbbPc9Eve-316">
          <mxGeometry width="50" height="50" relative="1" as="geometry">
            <mxPoint x="1530" y="1790" as="sourcePoint" />
            <mxPoint x="1590" y="1890" as="targetPoint" />
            <Array as="points">
              <mxPoint x="1180" y="1660" />
            </Array>
          </mxGeometry>
        </mxCell>
        <mxCell id="aqqptmSZhaTzbbPc9Eve-318" value="" style="endArrow=classic;startArrow=classic;html=1;rounded=0;entryX=0;entryY=0.5;entryDx=0;entryDy=0;exitX=1;exitY=0.5;exitDx=0;exitDy=0;" edge="1" parent="1" source="aqqptmSZhaTzbbPc9Eve-288" target="aqqptmSZhaTzbbPc9Eve-303">
          <mxGeometry width="50" height="50" relative="1" as="geometry">
            <mxPoint x="1600" y="1800" as="sourcePoint" />
            <mxPoint x="1650" y="1750" as="targetPoint" />
          </mxGeometry>
        </mxCell>
        <mxCell id="aqqptmSZhaTzbbPc9Eve-319" value="UPI" style="edgeLabel;html=1;align=center;verticalAlign=middle;resizable=0;points=[];" vertex="1" connectable="0" parent="aqqptmSZhaTzbbPc9Eve-318">
          <mxGeometry x="0.071" relative="1" as="geometry">
            <mxPoint as="offset" />
          </mxGeometry>
        </mxCell>
        <mxCell id="aqqptmSZhaTzbbPc9Eve-320" value="X&amp;nbsp;G/s" style="endArrow=classic;startArrow=classic;html=1;rounded=0;entryX=1;entryY=0.5;entryDx=0;entryDy=0;exitX=0.5;exitY=0;exitDx=0;exitDy=0;" edge="1" parent="1" source="aqqptmSZhaTzbbPc9Eve-321" target="aqqptmSZhaTzbbPc9Eve-303">
          <mxGeometry width="50" height="50" relative="1" as="geometry">
            <mxPoint x="1600" y="1800" as="sourcePoint" />
            <mxPoint x="1650" y="1750" as="targetPoint" />
            <Array as="points">
              <mxPoint x="2060" y="1660" />
            </Array>
          </mxGeometry>
        </mxCell>
        <mxCell id="aqqptmSZhaTzbbPc9Eve-321" value="IB 3" style="rounded=0;whiteSpace=wrap;html=1;" vertex="1" parent="1">
          <mxGeometry x="2040" y="1880" width="40" height="120" as="geometry" />
        </mxCell>
      </root>
    </mxGraphModel>
  </diagram>
</mxfile>
